<ttFont>
          <CharString index="0">
            rmoveto
            -300 -1 149 -323 455 hhcurveto
            184 152 42 30 106 hvcurveto
            57 16 26 4 26 3 107 771 rcurveline
            -576 hlineto
            -33 -280 rlineto
            248 hlineto
            -45 -288 rlineto
            -25 -52 -99 -8 -48 hhcurveto
            -203 -95 135 244 1 hvcurveto
            283 2 107 346 334 hhcurveto
            186 165 -86 -36 47 hvcurveto
            74 322 -95 33 rlineto
            21 -64 -115 35 -190 hhcurveto
            -450 -361 -379 -560 1 hvcurveto
            return
          </CharString>
          <CharString index="1">
            12 callgsubr
            73 91 111 2 hvcurveto
            90 2 -72 76 -107 2 callsubr
            -92 -109 -2 hvcurveto
            -93 -2 81 -74 90 hhcurveto
            return
          </CharString>
          <CharString index="2">
            rmoveto
            255 109 188 159 11 0 12 -1 11 hvcurveto
            -184 hlineto
            -80 -13 -32 -84 -118 hhcurveto
            -118 -26 39 80 16 2 15 2 14 hvcurveto
            -188 hlineto
            -5 -18 -7 -44 -23 vvcurveto
            -180 84 -116 240 vhcurveto
            return
          </CharString>
          <CharString index="3">
            41 callgsubr
            406 -16 rmoveto
            166 107 142 122 56 hvcurveto
            hintmask 00110100
            -11 -248 rlineto
            320 hlineto
            161 1156 -184 -45 rlineto
            21 -61 -103 24 -84 -13 callgsubr
            hintmask 01010100
            -65 callsubr
            vhcurveto
            hintmask 10010100
            125 240 rmoveto
            -60 -29 73 -44 callgsubr
            26 -1 -4 23 hvcurveto
            -47 -335 rlineto
            -143 -41 -103 -239 -101 hhcurveto
            hintmask 00001010
            return
          </CharString>
          <CharString index="4">
            rmoveto
            -52 -255 rlineto
            -19 41 131 -26 99 hhcurveto
            283 313 96 392 54 hvcurveto
            164 1185 -188 -45 rlineto
            22 -60 -103 23 -84 hhcurveto
            -468 -235 -375 -369 -65 callsubr
            170 108 147 125 55 hvcurveto
            -63 -353 rlineto
            -124 -23 -48 -87 -144 hhcurveto
            -120 -146 72 19 -20 hvcurveto
            return
          </CharString>
          <CharString index="5">
            843 -8 callgsubr
            0 -20 193 368 -227 30 callgsubr
            -80 836 -101 515 -316 387 -4 callsubr
            hintmask 1100010100000000
            875 hmoveto
            -97 callsubr
            hintmask 1100100100000000
            24 134 50 20 56 1 57 1 48 -38 11 -11 rrcurveto
            hintmask 1100010100000000
            2 callgsubr
            hintmask 1100100100000000
            22 -54 -60 -98 callsubr
            hintmask 1010000010000000
            -32 callsubr
            hintmask 0001000001000000
            -53 callgsubr
            -4 callsubr
            -1868 -1313 rmoveto
            -97 callsubr
            hintmask 1100011000000000
            -60 callgsubr
            hintmask 1100101000000000
            2 callgsubr
            hintmask 1100011000000000
            22 -54 -69 -98 callsubr
            endchar
          </CharString>
          <CharString index="6">
            698 rlineto
            114 59 93 75 73 hhcurveto
            54 31 -25 -74 -4 hvcurveto
            -3 -65 -11 -97 -14 -116 -21 -174 -29 -201 -20 -135 rrcurveto
            -31 callsubr
            16 121 31 207 25 183 rrcurveto
            22 161 18 135 47 vvcurveto
            224 -105 78 -172 return
          </CharString>
          <CharString index="7">
            12 callgsubr
            72 91 111 3 hvcurveto
            87 2 -67 74 -117 2 callsubr
            -53 callsubr
            -93 -2 76 -74 100 hhcurveto
            return
          </CharString>
          <CharString index="8">
            347 236 162 312 193 -159 134 -118 94 hvcurveto
            -110 87 -83 69 2 95 rrcurveto
            71 1 56 66 129 hhcurveto
            101 112 -41 -46 46 hvcurveto
            112 281 rlineto
            37 -52 -134 48 -175 hhcurveto
            -322 -212 -178 -279 -186 134 -143 122 -92 hvcurveto
            144 -109 46 -51 -2 -88 rrcurveto
            return
          </CharString>
          <CharString index="9">
            4 -56 hhcurveto
            -270 -184 -177 -248 -36 hvcurveto
            -19 -105 rlineto
            -111 hlineto
            -41 -216 6 callsubr
            return
          </CharString>
          <CharString index="10">
            348 hlineto
            3 -7 -57 134 978 vhcurveto
            187 hlineto
            27 216 rlineto
            -189 hlineto
            28 159 rlineto
            return
          </CharString>
          <CharString index="11">
            338 hlineto
            115 833 -3 275 99 -275 348 -833 rlineto
            297 -39 callgsubr
            -342 hlineto
            -97 -792 -13 -260 -79 260 -356 792 rlineto
            -307 hlineto
            return
          </CharString>
          <CharString index="12">
            -89 59 -63 97 129 84 87 131 80 -43 69 -118 -129 -79 -103 -112 vhcurveto
            return
          </CharString>
          <CharString index="13">
            rmoveto
            121 46 262 234 36 68 -209 200 rcurveline
            -334 -449 rlineto
            return
          </CharString>
          <CharString index="14">
            rmoveto
            180 hlineto
            371 348 -148 67 -287 -177 -183 177 -145 -78 rlineto
            return
          </CharString>
          <CharString index="15">
            -105 callgsubr
            endchar
          </CharString>
          <CharString index="16">
            rmoveto
            290 173 180 -174 155 68 -212 374 rlineto
            -180 hlineto
            -371 -374 rlineto
            return
          </CharString>
          <CharString index="17">
            rmoveto
            287 167 183 -167 145 78 -212 337 rlineto
            -180 hlineto
            return
          </CharString>
          <CharString index="18">
            1338 -107 callgsubr
            return
          </CharString>
          <CharString index="19">
            356 445 -74 callgsubr
            26 25 -1 -4 23 hvcurveto
            -46 -334 rlineto
            -142 -41 -102 -237 -102 hhcurveto
            return
          </CharString>
          <CharString index="20">
            -192 -156 -5 -41 rlineto
            33 -33 29 -106 -78 vvcurveto
            -160 -81 -112 -69 -35 vhcurveto
            -2 -22 115 -141 rlineto
            144 60 210 188 283 vvcurveto
            191 -102 117 -80 45 vhcurveto
            return
          </CharString>
          <CharString index="21">
            -90 callgsubr
            endchar
          </CharString>
          <CharString index="22">
            -83 callsubr
            endchar
          </CharString>
          <CharString index="23">
            65 469 -103 callgsubr
            return
          </CharString>
          <CharString index="24">
            375 hlineto
            200 546 61 167 18 -167 57 -546 rlineto
            413 hlineto
            595 -57 callgsubr
            -364 hlineto
            -334 -980 -53 -222 -23 222 -60 980 rlineto
            -345 hlineto
            36 -339 -257 -641 -68 -222 -20 222 -59 980 rlineto
            -357 hlineto
            return
          </CharString>
          <CharString index="25">
            -23 30 72 -11 78 hhcurveto
            251 233 181 347 47 -36 callgsubr
            return
          </CharString>
          <CharString index="26">
            1230 -16 259 -243 287 -266 -21 1250 280 -245 261 -102 86 0 37 callsubr
            -60 1325 -4 callsubr
            hintmask 0010001100000000
            72 hmoveto
            -33 callsubr
            hintmask 1000100100000000
            -77 callsubr
            hintmask 1000001100000000
            -59 callgsubr
            hintmask 1000100100000000
            -61 callsubr
            918 -264 3 callgsubr
            hintmask 0101000010000000
            742 1088 rlineto
            hintmask 0100010010000000
            -48 callgsubr
            return
          </CharString>
          <CharString index="27">
            -8 callsubr
            hintmask 11010000
            -38 callsubr
            hintmask 11000010
            -89 callgsubr
            hintmask 11001000
            -55 callgsubr
            endchar
          </CharString>
          <CharString index="28">
            78 -8 callgsubr
            0 -20 193 368 -227 216 -5 -21 hstemhm
            110 835 -100 515 -316 387 -4 callsubr
            hintmask 1100011000000000
            110 hmoveto
            -97 callsubr
            hintmask 1100101000000000
            24 134 50 20 56 1 57 1 47 -38 11 -11 rrcurveto
            hintmask 1100011000000000
            2 callgsubr
            hintmask 1100101000000000
            22 -54 -59 -98 callsubr
            hintmask 1010000100000000
            -32 callsubr
            hintmask 0001000010000000
            -53 callgsubr
            endchar
          </CharString>
          <CharString index="29">
            136 241 100 272 206 return
          </CharString>
          <CharString index="30">
            -4 56 51 -3 37 hhcurveto
            574 272 453 495 365 -158 249 -423 hvcurveto
            return
          </CharString>
          <CharString index="31">
            -96 -40 -179 -131 -145 vvcurveto
            -105 84 -89 129 145 103 40 83 81 vhcurveto
            -41 175 rlineto
            -44 -56 -42 -21 -55 hhcurveto
            -39 -28 15 57 64 110 85 136 56 hvcurveto
            return
          </CharString>
          <CharString index="32">
            -3 133 5 -141 196 hhcurveto
            117 144 114 95 39 hvcurveto
            -119 145 rlineto
            -52 -42 -45 -58 -83 hhcurveto
            return
          </CharString>
          <CharString index="33">
            rmoveto
            151 -28 rlineto
            96 101 51 199 156 vvcurveto
            80 -13 82 -26 27 vhcurveto
            -229 -48 -19 -42 rlineto
            20 -30 4 -96 -75 vvcurveto
            -116 -18 -122 -23 -63 vhcurveto
            endchar
          </CharString>
          <CharString index="34">
            364 hintmask 11010100
            -70 callsubr
            return
          </CharString>
          <CharString index="35">
            rmoveto
            -217 105 -241 309 230 134 116 85 56 vhcurveto
            -89 171 rlineto
            hintmask 01010100
            -48 -43 -108 -67 -84 hhcurveto
            -72 callgsubr
            hintmask 10100100
            0 callsubr
            hvcurveto
            endchar
          </CharString>
          <CharString index="36">
            12 callgsubr
            122 -279 342 -210 -187 53 -101 196 -140 97 -36 rlinecurve
            return
          </CharString>
          <CharString index="37">
            66 578 -104 callgsubr
            return
          </CharString>
          <CharString index="38">
            98 hmoveto
            -61 callgsubr
            return
          </CharString>
          <CharString index="39">
            -35 44 rlineto
            -822 hlineto
            -37 -267 rlineto
            428 hlineto
            -52 -38 -554 -790 rlineto
            return
          </CharString>
          <CharString index="40">
            354 hlineto
            85 573 rlineto
            157 hlineto
            32 60 -92 -175 43 hvcurveto
            49 -184 13 -86 25 -36 rrcurveto
            392 hlineto
            -39 56 -15 49 -85 262 -34 128 -51 99 -56 47 rrcurveto
            return
          </CharString>
          <CharString index="41">
            1258 -92 callgsubr
            return
          </CharString>
          <CharString index="42">
            -230 84 -198 252 return
          </CharString>
          <CharString index="43">
            -21 1140 -20 return
          </CharString>
          <CharString index="44">
            308 0 252 1017 276 hstem
            176 324 708 337 vstem
            68 hmoveto
            555 hlineto
            90 189 rlineto
            -110 76 -103 301 228 vvcurveto
            361 175 114 207 152 174 -97 -285 -271 -143 -323 -198 -104 vhcurveto
            70 -189 rlineto
            566 hlineto
            27 252 rlineto
            -310 hlineto
            216 205 109 283 227 vvcurveto
            398 -271 180 -355 -482 -261 -231 -475 -205 89 -220 140 -162 vhcurveto
            -304 hlineto
            endchar
          </CharString>
          <CharString index="45">
            rmoveto
            -224 111 -138 214 296 187 258 257 209 -93 135 -231 -280 -204 -248 -249 vhcurveto
            235 17 rmoveto
            107 67 168 138 78 45 -65 -101 -104 -59 -177 -136 -84 -49 71 101 vhcurveto
            return
          </CharString>
          <CharString index="46">
            -82 callgsubr
            hintmask 1000001100000000
            -61 -54 8 13 -40 hvcurveto
            -4 callsubr
            return
          </CharString>
          <CharString index="47">
            rmoveto
            183 190 97 213 159 -129 74 -177 -156 -234 -68 -235 -158 132 -82 191 hvcurveto
            12 139 17 callsubr
          </CharString>
          <CharString index="48">
            -204 -30 -27 -183 -180 hhcurveto
            -5 -20 0 9 -13 hvcurveto
            return
          </CharString>
          <CharString index="49">
            -21 -41 callgsubr
            return
          </CharString>
          <CharString index="50">
            -83 -16 240 -219 -21 37 -21 946 210 return
          </CharString>
          <CharString index="51">
            848 hlineto
            42 288 -497 -11 180 1253 11 callsubr
            return
          </CharString>
          <CharString index="52">
            -39 callgsubr
            -354 hlineto
            return
          </CharString>
          <CharString index="53">
            72 hmoveto
            -96 callsubr
            return
          </CharString>
          <CharString index="54">
            -87 -109 -2 hvcurveto
            return
          </CharString>
          <CharString index="55">
            1530 return
          </CharString>
          <CharString index="56">
            rmoveto
            125 38 153 157 69 116 -180 144 rcurveline
            -285 -369 rlineto
            -371 -86 rmoveto
            115 37 177 159 52 116 -183 143 rcurveline
            -284 -369 rlineto
            endchar
          </CharString>
          <CharString index="57">
            -100 callsubr
            endchar
          </CharString>
          <CharString index="58">
            173 -106 callsubr
            return
          </CharString>
          <CharString index="59">
            -110 -27 144 -172 hhcurveto
            -111 -150 -106 -91 -45 hvcurveto
            return
          </CharString>
          <CharString index="60">
            -14 -279 rlineto
            319 hlineto
            211 1634 rlineto
            -344 hlineto
            -67 -484 rlineto
            hintmask 00110010
            -37 callgsubr
            hintmask 01010010
            -65 callsubr
            vhcurveto
            hintmask 10010010
            -76 callgsubr
            return
          </CharString>
          <CharString index="61">
            -104 -6 -73 -21 -103 hhcurveto
            -32 -30 8 8 -17 hvcurveto
            -36 -203 rlineto
            -16 23 164 -19 53 hhcurveto
            221 80 101 132 return
          </CharString>
          <CharString index="62">
            -6 20 -21 22 -21 286 241 1003 -20 return
          </CharString>
          <CharString index="63">
            rmoveto
            105 48 222 233 28 106 -216 143 rcurveline
            -269 -447 rlineto
            -349 -83 rmoveto
            102 50 206 238 27 105 -210 137 rcurveline
            -264 -447 rlineto
            return
          </CharString>
          <CharString index="64">
            21 -64 callsubr
            return
          </CharString>
          <CharString index="65">
            rmoveto
            296 187 258 257 209 -93 135 -231 -280 -204 -248 -249 -224 111 -138 214 hvcurveto
            109 -673 rmoveto
            269 hlineto
            707 -57 callgsubr
            -249 hlineto
            -793 -650 rmoveto
            -84 -49 71 101 107 67 168 138 78 45 -65 -101 -104 -59 -177 -136 hvcurveto
            return
          </CharString>
          <CharString index="66">
            -85 -2 -51 -68 -151 hhcurveto
            -101 -129 52 49 -63 hvcurveto
            return
          </CharString>
          <CharString index="67">
            -59 1 -17 callsubr
            return
          </CharString>
          <CharString index="68">
            vstem
            497 250 rmoveto
            273 hlineto
            34 276 6 135 97 -7 rlineto
            274 hlineto
            35 263 rlineto
            -275 hlineto
            -98 -10 25 138 26 279 rlineto
            -272 hlineto
            -30 -279 -9 -139 -117 11 rlineto
            -249 hlineto
            -35 -263 rlineto
            249 hlineto
            124 7 -25 -135 rlineto
            return
          </CharString>
          <CharString index="69">
            238 236 83 264 134 -67 76 -134 103 hvcurveto
            return
          </CharString>
          <CharString index="70">
            265 321 280 407 289 return
          </CharString>
          <CharString index="71">
            -170 -16 214 744 214 return
          </CharString>
          <CharString index="72">
            406 -16 rmoveto
            180 111 167 128 51 hvcurveto
            return
          </CharString>
          <CharString index="73">
            7 -10 -25 7 -36 hhcurveto
            -137 -111 -123 -128 -43 hvcurveto
            -1 -1 1 8 rlineto
            return
          </CharString>
          <CharString index="74">
            144 hlineto
            63 77 -5 -4 69 hvcurveto
            return
          </CharString>
          <CharString index="75">
            608 -924 rmoveto
            -31 callsubr
            -84 callgsubr
            return
          </CharString>
          <CharString index="76">
            357 hlineto
            return
          </CharString>
          <CharString index="77">
            153 52 -182 203 hhcurveto
            146 158 117 113 28 hvcurveto
            -134 139 rlineto
            -70 -50 -59 -37 -73 hhcurveto
            return
          </CharString>
          <CharString index="78">
            rmoveto
            597 hlineto
            18 219 rlineto
            -597 hlineto
            return
          </CharString>
          <CharString index="79">
            278 150 173 267 175 vvcurveto
            179 -143 110 -243 -210 -193 -109 -80 -58 vhcurveto
            112 -145 rlineto
            47 52 94 51 133 hhcurveto
            72 40 -36 -75 -167 -414 -325 -166 -87 hvcurveto
            return
          </CharString>
          <CharString index="80">
            hstemhm
            70 372 return
          </CharString>
          <CharString index="81">
            -91 callsubr
            endchar
          </CharString>
          <CharString index="82">
            65 -149 58 -131 17 -25 417 -2 rcurveline
            -61 97 -64 119 -65 128 -85 167 -88 182 -88 165 607 673 rcurveline
            -404 hlineto
            -526 -662 95 662 11 callsubr
            endchar
          </CharString>
          <CharString index="83">
            -528 206 -151 -21 515 -64 callsubr
            return
          </CharString>
          <CharString index="84">
            -68 callgsubr
            183 -21 hstemhm
            return
          </CharString>
          <CharString index="85">
            -87 callsubr
            endchar
          </CharString>
          <CharString index="86">
            rmoveto
            -656 398 -110 -172 364 -301 -430 -306 58 -205 742 396 rlineto
            return
          </CharString>
          <CharString index="87">
            rmoveto
            -87 callsubr
            return
          </CharString>
          <CharString index="88">
            hmoveto
            -14 callsubr
            return
          </CharString>
          <CharString index="89">
            39 53 rmoveto
            43 -18 43 -65 -88 vvcurveto
            -95 -60 -109 -94 -49 vhcurveto
            -3 -21 93 -127 rlineto
            213 66 129 200 222 vvcurveto
            102 -48 166 -153 58 vhcurveto
            -156 -188 rlineto
            return
          </CharString>
          <CharString index="90">
            -21 41 -64 callsubr
            return
          </CharString>
          <CharString index="91">
            134 31 111 279 112 hhcurveto
            60 28 -73 -136 -241 -99 -268 -206 hvcurveto
            return
          </CharString>
          <CharString index="92">
            3 callgsubr
            hintmask 11001000
            742 1088 rlineto
            hintmask 10101000
            -10 callgsubr
          </CharString>
          <CharString index="93">
            -31 callsubr
            222 1634 rlineto
            -359 hlineto
            return
          </CharString>
          <CharString index="94">
            42 callgsubr
            89 622 rlineto
            482 hlineto
            -89 -622 rlineto
            358 -39 callgsubr
            -358 hlineto
            -95 -664 rlineto
            -482 hlineto
            95 664 11 callsubr
            return
          </CharString>
          <CharString index="95">
            -131 -39 -16 -119 hhcurveto
            -202 hlineto
            258 -682 rmoveto
            return
          </CharString>
          <CharString index="96">
            -42 -296 -2 callgsubr
            -1557 hlineto
            return
          </CharString>
          <CharString index="97">
            35 293 rlineto
            194 hlineto
            24 223 -192 -7 32 262 -267 -23 rlineto
            return
          </CharString>
          <CharString index="98">
            rmoveto
            42 44 54 46 68 -1 rrcurveto
            return
          </CharString>
          <CharString index="99">
            rmoveto
            -30 38 159 -39 134 hhcurveto
            return
          </CharString>
          <CharString index="100">
            -497 -362 1959 hstem
            -142 1135 vstem
            130 -362 rmoveto
            863 1959 rlineto
            -274 hlineto
            -861 -1959 rlineto
            endchar
          </CharString>
          <CharString index="101">
            -96 -667 rmoveto
            61 425 rlineto
            2 23 30 2 54 hhcurveto
            187 81 -44 -151 -199 -128 -42 -186 -32 -50 1 6 -40 hvcurveto
            endchar
          </CharString>
          <CharString index="102">
            -16 283 -262 -21 1283 279 0 -20 return
          </CharString>
          <CharString index="103">
            hintmask 0000000000000000
            return
          </CharString>
          <CharString index="104">
            -48 callsubr
            endchar
          </CharString>
          <CharString index="105">
            -35 -249 -302 -10 66 86 445 669 -213 104 -68 -1 return
          </CharString>
          <CharString index="106">
            -8 callgsubr
            314 30 callgsubr
            return
          </CharString>
          <CharString index="107">
            -359 -262 -294 -420 return
          </CharString>
          <CharString index="108">
            -68 callgsubr
            hstem
            return
          </CharString>
          <CharString index="109">
            hhcurveto
            -124 -84 return
          </CharString>
          <CharString index="110">
            -227 -57 callgsubr
            return
          </CharString>
          <CharString index="111">
            20 callsubr
            hintmask 00010100
            -33 callgsubr
          </CharString>
          <CharString index="112">
            244 -168 -21 89 244 hstemhm
            return
          </CharString>
          <CharString index="113">
            rlineto
            122 hlineto
            return
          </CharString>
          <CharString index="114">
            -367 0 272 601 267 -44 44 return
          </CharString>
          <CharString index="115">
            hhcurveto
            -113 return
          </CharString>
          <CharString index="116">
            258 hintmask 00000000
            hintmask 10001000
            return
          </CharString>
          <CharString index="117">
            hstemhm
            7 1068 -895 338 return
          </CharString>
          <CharString index="118">
            rlineto
            -354 hlineto
            return
          </CharString>
          <CharString index="119">
            3 234 rlineto
            -327 hlineto
            -223 -1632 rlineto
            352 hlineto
            98 691 rmoveto
            45 318 rlineto
            return
          </CharString>
          <CharString index="120">
            55 390 rlineto
            2 30 34 1 48 hhcurveto
            122 84 -25 -117 -179 -99 -75 -184 hvcurveto
            return
          </CharString>
          <CharString index="121">
            -147 -16 287 976 299 return
          </CharString>
          <CharString index="122">
            hstemhm
            72 1133 return
          </CharString>
          <CharString index="123">
            354 hlineto
            70 489 rlineto
            19 72 -2 70 hhcurveto
            424 233 279 341 -1 hvcurveto
            return
          </CharString>
          <CharString index="124">
            -51 callgsubr
            endchar
          </CharString>
          <CharString index="125">
            21 23 callgsubr
            return
          </CharString>
          <CharString index="126">
            196 305 195 return
          </CharString>
          <CharString index="127">
            69 -90 callsubr
            return
          </CharString>
          <CharString index="128">
            120 -1157 389 15 437 1142 74 234 -27 -234 rlineto
            return
          </CharString>
          <CharString index="129">
            -66 -471 -21 476 210 -183 -21 922 244 -16 -20 36 -20 return
          </CharString>
          <CharString index="130">
            204 42 98 155 197 vvcurveto
            191 -115 156 -393 vhcurveto
            return
          </CharString>
          <CharString index="131">
            451 289 143 363 161 -100 116 -180 37 hvcurveto
            return
          </CharString>
          <CharString index="132">
            -16 249 -212 -21 669 235 396 245 -15 -20 return
          </CharString>
          <CharString index="133">
            -497 -186 1966 hstem
            320 253 vstem
            320 return
          </CharString>
          <CharString index="134">
            -103 -109 -13 -2 -96 hvcurveto
            -187 hlineto
            265 -623 rmoveto
            return
          </CharString>
          <CharString index="135">
            -133 -118 -16 -78 hhcurveto
            -156 hlineto
            244 -766 rmoveto
            return
          </CharString>
          <CharString index="136">
            33 callgsubr
            endchar
          </CharString>
          <CharString index="137">
            282 1248 -20 return
          </CharString>
          <CharString index="138">
            83 -19 callsubr
            return
          </CharString>
          <CharString index="139">
            -61 -16 210 -173 -21 912 244 0 -20 return
          </CharString>
          <CharString index="140">
            -512 1 -21 944 216 return
          </CharString>
          <CharString index="141">
            42 callgsubr
            85 return
          </CharString>
          <CharString index="142">
            21 -21 487 265 548 246 -16 -20 return
          </CharString>
          <CharString index="143">
            391 731 80 -8 -104 -723 rlineto
            endchar
          </CharString>
          <CharString index="144">
            -20 hstemhm
            1051 364 return
          </CharString>
          <CharString index="145">
            hstemhm
            98 573 return
          </CharString>
          <CharString index="146">
            16 119 rlineto
            241 hlineto
            33 214 rlineto
            return
          </CharString>
          <CharString index="147">
            rmoveto
            50 39 60 59 73 hhcurveto
            return
          </CharString>
          <CharString index="148">
            hstemhm
            115 362 return
          </CharString>
          <CharString index="149">
            293 -1 -193 146 -344 hhcurveto
            return
          </CharString>
          <CharString index="150">
            -68 callgsubr
            188 -21 hstemhm
            return
          </CharString>
          <CharString index="151">
            hintmask 00000000
            hintmask 01110000
            return
          </CharString>
          <CharString index="152">
            hstemhm
            65 354 return
          </CharString>
          <CharString index="153">
            -1351 endchar
          </CharString>
        <CharString name=".notdef">
          521 0 219 hstem
          213 229 960 227 vstem
          213 hmoveto
          1416 1416 -1416 hlineto
          230 -1053 rmoveto
          358 342 -359 363 123 125 357 -368 352 366 128 -124 -363 -358 363 -368 -122 -122 -362 368 -347 -368 rlineto
          endchar
        </CharString>
        <CharString name="A">
          -45 callsubr
          6 callgsubr
          hintmask 00000000
          hintmask 10111000
          -64 callgsubr
          hintmask 01111000
          -94 callgsubr
          endchar
        </CharString>
        <CharString name="AE">
          633 0 275 21 251 106 269 334 274 -256 256 -202 202 -170 170 hstemhm
          -121 2106 hintmask 00000000
          hintmask 10110001
          -121 hmoveto
          392 hlineto
          hintmask 11110001
          158 296 rlineto
          465 hlineto
          hintmask 10110001
          -11 callsubr
          hintmask 10100011
          -28 -170 rlineto
          hintmask 11100101
          242 -32 rlineto
          -79 -781 rmoveto
          hintmask 11101001
          36 callsubr
        </CharString>
        <CharString name="AEacute">
          645 0 275 21 251 106 269 334 274 -202 202 -170 170 163 -21 hstemhm
          -109 2106 -918 489 hintmask 0000001010000000
          1222 -65 callgsubr
          -4 callsubr
          -1188 -1672 rmoveto
          392 hlineto
          hintmask 1011000100000000
          158 296 rlineto
          465 hlineto
          hintmask 1111000100000000
          -11 callsubr
          hintmask 1011000100000000
          -28 -170 rlineto
          hintmask 1010010100000000
          242 -32 rlineto
          -79 -781 rmoveto
          hintmask 1110100100000000
          36 callsubr
        </CharString>
        <CharString name="Aacute">
          -45 callsubr
          183 -21 6 callgsubr
          -571 489 hintmask 00000000
          hintmask 10110100
          -64 callgsubr
          hintmask 01110100
          -94 callgsubr
          hintmask 00001010
          -13 1023 -97 callgsubr
          endchar
        </CharString>
        <CharString name="Abreve">
          -45 callsubr
          123 217 6 callgsubr
          -773 196 hintmask 00000000
          hintmask 10110100
          -64 callgsubr
          hintmask 01110100
          -94 callgsubr
          hintmask 00001010
          -34 1106 -105 callsubr
          endchar
        </CharString>
        <CharString name="Acircumflex">
          -45 callsubr
          188 -21 6 callgsubr
          -837 763 hintmask 00000000
          hintmask 10110100
          -64 callgsubr
          hintmask 01110100
          -94 callgsubr
          hintmask 00000000
          -274 1072 -90 callsubr
          hintmask 00001010
          -33 callgsubr
        </CharString>
        <CharString name="Adieresis">
          -45 callsubr
          6 callgsubr
          hintmask 00000000
          hintmask 10111000
          -64 callgsubr
          hintmask 01111000
          -94 callgsubr
          hintmask 00000000
          177 1105 -107 callgsubr
          endchar
        </CharString>
        <CharString name="Agrave">
          -45 callsubr
          183 -21 6 callgsubr
          -833 489 hintmask 00000000
          hintmask 10110100
          -64 callgsubr
          hintmask 01110100
          -94 callgsubr
          hintmask 00001010
          -72 1023 -17 callgsubr
        </CharString>
        <CharString name="Amacron">
          -45 callsubr
          197 209 6 callgsubr
          -745 597 hintmask 00000000
          hintmask 10110100
          -64 callgsubr
          hintmask 01110100
          -94 callgsubr
          hintmask 00001010
          -330 1180 14 callgsubr
        </CharString>
        <CharString name="Aogonek">
          6 -489 -21 530 -21 22 -21 286 241 1003 -20 hstemhm
          629 375 -281 356 hintmask 00000000
          hintmask 11011010
          -111 -1 rmoveto
          390 1 117 286 rlineto
          522 hlineto
          33 -287 rlineto
          45 hlineto
          -96 -41 -177 -131 -143 vvcurveto
          -105 84 -89 129 145 103 40 83 81 vhcurveto
          -41 175 rlineto
          hintmask 10111100
          -44 -56 -42 -21 -55 hhcurveto
          -39 -28 15 57 64 110 85 136 56 hvcurveto
          56 hlineto
          hintmask 10111010
          3 callsubr
          hintmask 10111100
          -450 hlineto
          -135 -1003 rmoveto
          276 675 39 119 6 -119 76 -675 rlineto
          endchar
        </CharString>
        <CharString name="Aring">
          -6 20 -21 22 -21 286 241 944 139 -80 -20 368 136 6 callgsubr
          -804 19 callsubr
          -4 callsubr
          hintmask 1010101000000000
          -64 callgsubr
          hintmask 0110101000000000
          -94 callgsubr
          hintmask 0001010110000000
          -66 944 -60 callsubr
        </CharString>
        <CharString name="Atilde">
          -45 callsubr
          82 5 callsubr
          -123 1417 -854 904 -4 callsubr
          hintmask 1011000100000000
          -64 callgsubr
          hintmask 0111000100000000
          -94 callgsubr
          -4 callsubr
          -333 1120 -9 callsubr
          hintmask 0000011010000000
          -75 callsubr
          hintmask 0000100010000000
          -3 callsubr
        </CharString>
        <CharString name="B">
          1 25 callsubr
          hstemhm
          896 376 -343 365 hintmask 00000000
          hintmask 01101100
          72 hmoveto
          155 hlineto
          74 151 -16 80 hhcurveto
          hintmask 10101100
          24 callsubr
          hintmask 01110010
          23 callsubr
          hintmask 01101100
          27 callsubr
          hintmask 01110010
          13 callsubr
          hintmask 01101100
          -29 -31 1 2 -30 hvcurveto
          hintmask 10101100
          -6 callsubr
        </CharString>
        <CharString name="C">
          -159 -16 287 976 299 hstem
          83 361 vstem
          625 -16 -93 callgsubr
          endchar
        </CharString>
        <CharString name="CR">
          46 callsubr
        </CharString>
        <CharString name="Cacute">
          14 callsubr
          147 -21 hstemhm
          95 361 316 489 hintmask 11010000
          637 -16 -93 callgsubr
          hintmask 00101000
          278 1566 -97 callgsubr
          endchar
        </CharString>
        <CharString name="Ccaron">
          14 callsubr
          53 415 hstemhm
          95 361 86 763 hintmask 11010000
          637 -16 -93 callgsubr
          hintmask 00101000
          117 1615 -93 callsubr
          endchar
        </CharString>
        <CharString name="Ccedilla">
          -147 -469 222 258 -21 23 -21 1255 299 hstemhm
          95 361 75 244 hintmask 00000000
          hintmask 10111100
          270 -231 rmoveto
          -36 -203 rlineto
          -16 23 164 -19 53 hhcurveto
          221 80 101 132 hvcurveto
          hintmask 11011100
          63 -20 102 -22 61 vhcurveto
          175 21 141 74 36 27 -46 249 rcurveline
          -38 -52 -127 -52 -129 hhcurveto
          -198 -77 115 239 304 114 318 300 150 96 -70 -36 41 hvcurveto
          102 335 -53 14 rlineto
          21 -51 -94 35 -154 hhcurveto
          -481 -331 -423 -499 hvcurveto
          hintmask 10111100
          -289 103 -292 332 -51 vhcurveto
          3 -30 0 -40 -2 -44 29 callsubr
        </CharString>
        <CharString name="Ccircumflex">
          14 callsubr
          152 -21 hstemhm
          95 361 50 763 hintmask 11010000
          637 -16 -93 callgsubr
          hintmask 00000000
          17 1615 -90 callsubr
          hintmask 00101000
          -33 callgsubr
        </CharString>
        <CharString name="Cdotaccent">
          14 callsubr
          66 16 callgsubr
          95 361 244 392 hintmask 00101000
          874 1612 -100 callsubr
          hintmask 11010000
          -237 -1628 -93 callgsubr
          endchar
        </CharString>
        <CharString name="D">
          72 13 callgsubr
          hstemhm
          1051 364 hintmask 00000000
          hintmask 01011000
          72 hmoveto
          -33 callsubr
          hintmask 10101000
          -77 callsubr
          hintmask 10011000
          -59 callgsubr
          hintmask 10101000
          -82 callgsubr
          hintmask 10011000
          -61 -54 8 13 -40 hvcurveto
          endchar
        </CharString>
        <CharString name="Dcaron">
          84 13 callgsubr
          89 415 hstemhm
          561 763 -261 364 hintmask 00001100
          773 -66 callgsubr
          hintmask 00000000
          -477 -1936 rmoveto
          -33 callsubr
          hintmask 01010010
          -77 callsubr
          hintmask 10100010
          -59 callgsubr
          hintmask 10010010
          -82 callgsubr
          hintmask 10100010
          -61 -54 8 13 -40 hvcurveto
          endchar
        </CharString>
        <CharString name="Dcroat">
          -69 callgsubr
        </CharString>
        <CharString name="Delta">
          -21 callgsubr
        </CharString>
        <CharString name="E">
          -49 callgsubr
          hstem
          72 1133 vstem
          72 hmoveto
          -91 callgsubr
          endchar
        </CharString>
        <CharString name="Eacute">
          -49 callgsubr
          163 -21 15 callsubr
          -544 489 hintmask 00010100
          804 -65 callgsubr
          hintmask 11101000
          -589 -1672 rmoveto
          -91 callgsubr
          endchar
        </CharString>
        <CharString name="Ebreve">
          -49 callgsubr
          103 217 15 callsubr
          -746 196 hintmask 00010100
          783 -75 callgsubr
          hintmask 11101000
          -711 -1633 rmoveto
          -91 callgsubr
          endchar
        </CharString>
        <CharString name="Ecaron">
          -49 callgsubr
          69 415 15 callsubr
          -774 763 hintmask 00010100
          643 -66 callgsubr
          hintmask 11101000
          -359 -1936 rmoveto
          -91 callgsubr
          endchar
        </CharString>
        <CharString name="Ecircumflex">
          -49 callgsubr
          168 -21 15 callsubr
          -810 763 hintmask 11101000
          72 hmoveto
          -91 callgsubr
          hintmask 00000000
          252 4 callsubr
        </CharString>
        <CharString name="Edieresis">
          -49 callgsubr
          102 363 15 callsubr
          -833 -9 callgsubr
          hintmask 00010110
          994 -81 callgsubr
          hintmask 11101000
          -450 -1632 rmoveto
          -91 callgsubr
          endchar
        </CharString>
        <CharString name="Edotaccent">
          -49 callgsubr
          82 363 15 callsubr
          -616 392 hintmask 00010100
          763 1612 -100 callsubr
          hintmask 11101000
          -691 -1612 rmoveto
          -91 callgsubr
          endchar
        </CharString>
        <CharString name="Egrave">
          -49 callgsubr
          163 -21 15 callsubr
          -806 489 hintmask 00010100
          745 1550 -71 callsubr
          hintmask 11101000
          -673 -1550 rmoveto
          -91 callgsubr
          endchar
        </CharString>
        <CharString name="Emacron">
          -49 callgsubr
          177 209 15 callsubr
          -718 597 hintmask 00010100
          487 1707 -29 callgsubr
          hintmask 11101000
          -435 -1916 rmoveto
          -91 callgsubr
          endchar
        </CharString>
        <CharString name="Eng">
          161 1 callsubr
          84 1413 vstem
          84 hmoveto
          338 hlineto
          115 833 -3 275 99 -275 328 -786 -22 -148 -70 -92 -231 -93 rlinecurve
          57 -128 348 25 200 195 35 194 rlinecurve
          219 -57 callgsubr
          -342 hlineto
          -97 -792 -13 -260 -79 260 -356 792 rlineto
          -307 hlineto
          endchar
        </CharString>
        <CharString name="Eogonek">
          -135 -489 -21 510 275 378 269 334 274 hstemhm
          84 1133 -664 281 hintmask 00000000
          hintmask 11111000
          84 hmoveto
          744 hlineto
          hintmask 11110100
          -76 callsubr
          -7 1 37 279 -633 -10 55 388 421 -9 36 276 -419 -5 48 337 562 -2 37 275 rlineto
          -914 hlineto
          endchar
        </CharString>
        <CharString name="Eth">
          -69 callgsubr
        </CharString>
        <CharString name="Euro">
          38 -16 232 308 182 154 182 250 254 hstem
          23 1286 vstem
          23 524 rmoveto
          202 hlineto
          -278 30 149 -262 374 hhcurveto
          206 165 75 80 71 hvcurveto
          -70 201 rlineto
          -62 -80 -96 -62 -131 hhcurveto
          -163 -83 112 196 -19 hvcurveto
          490 hlineto
          15 182 rlineto
          -505 hlineto
          4 53 6 52 11 49 rrcurveto
          504 hlineto
          19 182 rlineto
          -464 hlineto
          153 72 114 97 147 hhcurveto
          113 106 -41 -28 25 hvcurveto
          74 269 rlineto
          23 -78 -70 31 -166 hhcurveto
          -320 -264 -193 -311 -121 hvcurveto
          -203 hlineto
          -19 -182 rlineto
          171 hlineto
          -9 -50 -6 -51 -3 -53 rrcurveto
          -179 hlineto
          endchar
        </CharString>
        <CharString name="F">
          35 callgsubr
          hstem
          72 1076 vstem
          72 hmoveto
          5 callgsubr
        </CharString>
        <CharString name="G">
          76 -16 -37 callsubr
          hstem
          74 359 vstem
          74 607 -85 callgsubr
        </CharString>
        <CharString name="Gbreve">
          88 -16 -37 callsubr
          87 217 hstemhm
          86 359 183 196 hintmask 00010100
          952 -75 callgsubr
          hintmask 11101000
          -866 -1026 -85 callgsubr
        </CharString>
        <CharString name="Gcaron">
          76 -16 -37 callsubr
          53 415 hstemhm
          74 359 155 763 hintmask 11101000
          74 607 -107 callsubr
          hintmask 00010100
          726 992 -93 callsubr
          endchar
        </CharString>
        <CharString name="Gcircumflex">
          88 -16 -37 callsubr
          152 -21 hstemhm
          86 359 119 763 hintmask 11101000
          86 607 -107 callsubr
          hintmask 00000000
          626 992 -90 callsubr
          hintmask 00010100
          -33 callgsubr
        </CharString>
        <CharString name="Gcommaaccent">
          88 -539 -21 544 -37 callsubr
          hstemhm
          86 359 210 258 hintmask 00000000
          hintmask 10000100
          598 -141 -100 callgsubr
          hintmask 01111000
          -668 644 -85 callgsubr
        </CharString>
        <CharString name="Gdotaccent">
          88 -16 -37 callsubr
          66 16 callgsubr
          86 359 313 392 hintmask 00010100
          932 1612 -100 callsubr
          hintmask 11101000
          -846 -1005 -85 callgsubr
        </CharString>
        <CharString name="Gtilde">
          76 -16 -37 callsubr
          46 5 callsubr
          74 359 102 904 hintmask 11100010
          74 607 -107 callsubr
          hintmask 00000000
          567 1040 -9 callsubr
          hintmask 00001101
          -75 callsubr
          hintmask 00010001
          -3 callsubr
        </CharString>
        <CharString name="H">
          149 21 -21 622 244 664 -20 hstem
          60 1413 vstem
          60 -13 callsubr
          endchar
        </CharString>
        <CharString name="Hbar">
          161 21 -21 441 251 225 251 362 -20 hstem
          -1 1640 vstem
          84 42 callgsubr
          63 441 rlineto
          482 hlineto
          -63 -441 rlineto
          358 hlineto
          131 917 rlineto
          204 hlineto
          26 251 rlineto
          -194 hlineto
          52 362 rlineto
          -358 hlineto
          -52 -362 rlineto
          -482 hlineto
          52 362 11 callsubr
          -52 -362 rlineto
          -227 hlineto
          -25 -251 rlineto
          216 hlineto
          322 -225 rmoveto
          32 225 rlineto
          482 hlineto
          -32 -225 rlineto
          endchar
        </CharString>
        <CharString name="Hcircumflex">
          161 21 -21 622 244 664 -20 188 -21 hstemhm
          72 1413 -970 763 hintmask 11101000
          72 -13 callsubr
          hintmask 00000000
          372 4 callsubr
        </CharString>
        <CharString name="I">
          -645 1 callsubr
          98 573 vstem
          -69 callsubr
          endchar
        </CharString>
        <CharString name="I.uc">
          -645 -68 callgsubr
          102 363 38 callsubr
          -341 392 hintmask 11010000
          -69 callsubr
          hintmask 00101000
          187 82 -50 callsubr
        </CharString>
        <CharString name="IJ">
          64 -68 callgsubr
          38 callsubr
          -133 847 hintmask 11100000
          -69 callsubr
          hintmask 01010000
          504 -1444 -77 callgsubr
          endchar
        </CharString>
        <CharString name="IJ_acutecomb">
          52 -23 callsubr
          98 1275 -294 489 hintmask 11110000
          545 -65 callgsubr
          124 -1911 rmoveto
          44 -118 rlineto
          237 264 91 341 85 hvcurveto
          27 98 88 676 102 681 rrcurveto
          -356 hlineto
          -61 -435 -67 -617 -80 -392 -23 -131 -87 -151 -173 -43 rrcurveto
          -428 239 rmoveto
          -61 callgsubr
          hintmask 00101000
          905 20 -97 callgsubr
          endchar
        </CharString>
        <CharString name="Iacute">
          -645 -23 callsubr
          98 573 -269 489 hintmask 11010000
          -69 callsubr
          hintmask 00101000
          228 20 -97 callgsubr
          endchar
        </CharString>
        <CharString name="Ibreve">
          -645 -68 callgsubr
          123 217 38 callsubr
          -471 196 hintmask 11010000
          -69 callsubr
          hintmask 00101000
          207 103 -105 callsubr
          endchar
        </CharString>
        <CharString name="Icircumflex">
          -645 43 callsubr
          98 573 -535 763 hintmask 11010000
          -69 callsubr
          hintmask 00000000
          -33 20 callsubr
          hintmask 00101000
          -33 callgsubr
        </CharString>
        <CharString name="Idieresis">
          -645 -68 callgsubr
          38 callsubr
          vstemhm
          -69 callsubr
          418 102 -107 callgsubr
          endchar
        </CharString>
        <CharString name="Idotaccent">
          -645 -68 callgsubr
          102 363 38 callsubr
          -341 392 hintmask 11010000
          -69 callsubr
          hintmask 00101000
          187 82 -50 callsubr
        </CharString>
        <CharString name="Igrave">
          -645 -23 callsubr
          98 573 -531 489 hintmask 11010000
          -69 callsubr
          hintmask 00101000
          169 20 -17 callgsubr
        </CharString>
        <CharString name="Imacron">
          -645 -68 callgsubr
          197 209 38 callsubr
          -443 597 hintmask 11010000
          -69 callsubr
          hintmask 00101000
          -89 177 14 callgsubr
        </CharString>
        <CharString name="Iogonek">
          -645 -489 -21 531 -58 callsubr
          hstemhm
          -166 281 -281 837 hintmask 00000000
          hintmask 11101000
          98 hmoveto
          11 hlineto
          hintmask 11110000
          -76 callsubr
          91 -55 callsubr
          endchar
        </CharString>
        <CharString name="Itilde">
          -645 -68 callgsubr
          82 5 callsubr
          98 573 -552 904 hintmask 11000100
          -69 callsubr
          hintmask 00000000
          -92 117 -9 callsubr
          hintmask 00011010
          -75 callsubr
          hintmask 00100010
          -3 callsubr
        </CharString>
        <CharString name="J">
          -654 -41 callgsubr
          hstem
          -180 847 vstem
          103 86 -77 callgsubr
          endchar
        </CharString>
        <CharString name="Jcircumflex">
          -642 -41 callgsubr
          188 -21 hstemhm
          -168 847 -553 763 hintmask 10100000
          115 86 -77 callgsubr
          hintmask 00000000
          159 1513 -90 callsubr
          hintmask 01010000
          -33 callgsubr
        </CharString>
        <CharString name="K">
          -14 20 -21 22 -58 callsubr
          hstemhm
          72 1408 44 callsubr
          72 hmoveto
          27 callgsubr
          hintmask 10110000
          -25 callsubr
        </CharString>
        <CharString name="Kcommaaccent">
          -2 -537 -21 579 -58 callsubr
          hstemhm
          84 1408 -940 9 callsubr
          495 -139 -100 callgsubr
          hintmask 00000000
          -567 35 rmoveto
          27 callgsubr
          hintmask 01110000
          -25 callsubr
        </CharString>
        <CharString name="L">
          -283 0 30 callsubr
          hstem
          72 890 vstem
          72 hmoveto
          22 callgsubr
        </CharString>
        <CharString name="Lacute">
          -271 0 30 callsubr
          185 -21 hstemhm
          84 890 -553 489 hintmask 00101000
          564 1552 -97 callgsubr
          hintmask 11010000
          -337 -1674 21 callgsubr
        </CharString>
        <CharString name="Lcaron">
          -271 0 282 725 645 -122 -20 hstemhm
          84 890 -91 263 hintmask 10110000
          84 hmoveto
          -56 callsubr
          hintmask 01001000
          545 -495 -74 callsubr
        </CharString>
        <CharString name="Lcommaaccent">
          -271 -537 -21 558 30 callsubr
          hstemhm
          84 890 -610 9 callsubr
          307 -139 -100 callgsubr
          hintmask 01110000
          -379 35 21 callgsubr
        </CharString>
        <CharString name="Ldot">
          -175 0 282 486 -21 783 -20 hstemhm
          84 890 -170 369 hintmask 10110000
          84 hmoveto
          -56 callsubr
          hintmask 01001000
          501 -631 -86 callsubr
        </CharString>
        <CharString name="Lslash">
          -271 2 30 callsubr
          hstem
          -31 1015 vstem
          84 2 rmoveto
          848 hlineto
          42 288 -497 -11 55 386 452 155 -57 193 -363 -128 93 647 11 callsubr
          -111 -777 -223 -78 58 -184 134 45 rlineto
          endchar
        </CharString>
        <CharString name="M">
          40 callgsubr
          hstemhm
          -31 1928 44 callsubr
          -31 hmoveto
          29 callgsubr
          hintmask 10110000
          21 callsubr
          hintmask 01110000
          -5 callgsubr
        </CharString>
        <CharString name="N">
          149 1 callsubr
          72 1413 vstem
          -54 callsubr
          endchar
        </CharString>
        <CharString name="NULL">
          46 callsubr
        </CharString>
        <CharString name="Nacute">
          161 -23 callsubr
          84 1413 -739 489 hintmask 00101000
          901 -65 callgsubr
          hintmask 11010000
          -674 -1672 rmoveto
          -96 callsubr
          endchar
        </CharString>
        <CharString name="Ncaron">
          161 -68 callgsubr
          89 415 hstemhm
          84 1413 -949 763 hintmask 00101000
          760 -66 callgsubr
          hintmask 11010000
          -464 -1936 rmoveto
          -96 callsubr
          endchar
        </CharString>
        <CharString name="Ncommaaccent">
          161 11 callgsubr
          -52 callsubr
          -20 hstemhm
          84 1413 -888 9 callsubr
          552 -141 -100 callgsubr
          hintmask 01110000
          -624 37 rmoveto
          -96 callsubr
          endchar
        </CharString>
        <CharString name="Ntilde">
          161 -68 callgsubr
          82 5 callsubr
          84 1413 -1002 904 hintmask 00000000
          hintmask 00011010
          601 1647 -9 callsubr
          hintmask 00100010
          -75 callsubr
          hintmask 00011010
          -48 callsubr
          hintmask 11000100
          -411 -1783 rmoveto
          -96 callsubr
          endchar
        </CharString>
        <CharString name="O">
          -28 callgsubr
          hstem
          66 364 570 364 vstem
          -70 callsubr
          endchar
        </CharString>
        <CharString name="OE">
          860 -16 266 -250 275 378 269 334 274 -250 266 39 callgsubr
          hintmask 00000000
          hintmask 10101100
          66 578 rmoveto
          -325 183 -269 369 200 165 81 134 124 vhcurveto
          hintmask 01110100
          -28 -199 rlineto
          -91 callgsubr
          -31 -216 rlineto
          hintmask 01101100
          140 -89 -148 92 -209 hhcurveto
          hintmask 10101100
          -472 -283 -446 -522 hvcurveto
          580 -328 rmoveto
          -140 -76 81 265 305 130 379 223 141 76 -80 -265 -315 -131 -370 -223 hvcurveto
          endchar
        </CharString>
        <CharString name="Oacute">
          -28 callgsubr
          147 -21 39 callgsubr
          339 489 -258 364 hintmask 00101000
          912 -65 callgsubr
          hintmask 11010100
          -703 -1094 -104 callgsubr
          endchar
        </CharString>
        <CharString name="Obreve">
          -28 callgsubr
          87 217 39 callgsubr
          137 196 237 364 hintmask 00101000
          891 -75 callgsubr
          hintmask 11010100
          -825 -1055 -104 callgsubr
          endchar
        </CharString>
        <CharString name="Ocircumflex">
          -28 callgsubr
          152 -21 39 callgsubr
          73 763 -266 -73 callsubr
          hintmask 00000000
          5 1349 -90 callsubr
          hintmask 00101000
          -33 callgsubr
        </CharString>
        <CharString name="Odieresis">
          -28 callgsubr
          86 363 39 callgsubr
          50 339 135 339 -293 364 hintmask 00000000
          hintmask 00101100
          1102 -81 callgsubr
          hintmask 11010010
          -564 -1054 -104 callgsubr
          endchar
        </CharString>
        <CharString name="Ograve">
          -28 callgsubr
          147 -21 39 callgsubr
          77 489 4 364 hintmask 00101000
          853 1550 -71 callsubr
          hintmask 11010100
          -787 -972 -104 callgsubr
          endchar
        </CharString>
        <CharString name="Ohungarumlaut">
          -28 callgsubr
          120 -21 39 callgsubr
          50 959 -439 -73 callsubr
          hintmask 00101000
          446 1309 -51 callsubr
        </CharString>
        <CharString name="Omacron">
          -28 callgsubr
          161 209 39 callgsubr
          165 597 -192 364 hintmask 00101000
          595 1707 -29 callgsubr
          hintmask 11010100
          -549 -1338 -104 callgsubr
          endchar
        </CharString>
        <CharString name="Omega">
          -63 callsubr
        </CharString>
        <CharString name="Oslash">
          42 -14 266 1030 266 hstem
          66 364 570 364 vstem
          -67 callgsubr
          endchar
        </CharString>
        <CharString name="Oslashacute">
          42 -14 266 1030 266 145 -21 39 callgsubr
          228 489 -147 364 hintmask 11010100
          -67 callgsubr
          hintmask 00101000
          291 1254 -97 callgsubr
          endchar
        </CharString>
        <CharString name="Otilde">
          -28 callgsubr
          46 5 callsubr
          66 364 56 904 -390 364 hintmask 00000000
          hintmask 00011010
          592 1647 -9 callsubr
          hintmask 00100010
          -75 callsubr
          hintmask 00011010
          -48 callsubr
          hintmask 11000101
          -420 -1205 -104 callgsubr
          endchar
        </CharString>
        <CharString name="P">
          -53 35 callsubr
          hstemhm
          964 349 hintmask 00000000
          hintmask 11011000
          72 hmoveto
          16 callsubr
          hintmask 11101000
          42 callsubr
          hintmask 11011000
          28 callsubr
          hintmask 11101000
          9 callgsubr
          hintmask 11011000
          -48 -57 5 7 -24 hvcurveto
          endchar
        </CharString>
        <CharString name="Q">
          44 -420 279 157 -21 1285 266 hstem
          66 364 570 364 vstem
          497 -5 rmoveto
          -330 -108 250 -85 233 hhcurveto
          127 199 46 56 59 hvcurveto
          203 vlineto
          -20 -70 -113 -6 -128 hhcurveto
          -150 -95 19 113 14 hvcurveto
          407 57 242 414 484 vvcurveto
          326 -181 274 -362 -472 -283 -446 -522 -288 143 -243 288 -52 vhcurveto
          149 255 rmoveto
          -140 -76 81 265 305 130 379 223 141 76 -80 -265 -315 -131 -370 -223 hvcurveto
          endchar
        </CharString>
        <CharString name="R">
          -7 18 callsubr
          hstemhm
          72 1257 -345 345 hintmask 00000000
          hintmask 11011000
          72 hmoveto
          -67 callsubr
          hintmask 11100100
          -24 callgsubr
          hintmask 11011000
          -12 callsubr
          hintmask 11100100
          -42 callgsubr
          hintmask 11011000
          37 callgsubr
          endchar
        </CharString>
        <CharString name="Racute">
          5 18 callsubr
          183 -21 hstemhm
          84 1257 -625 489 -209 345 hintmask 00000000
          hintmask 11010100
          84 hmoveto
          -67 callsubr
          hintmask 11100001
          -24 callgsubr
          hintmask 11010100
          -12 callsubr
          hintmask 11100001
          -42 callgsubr
          hintmask 11010100
          37 callgsubr
          hintmask 00001010
          299 702 -97 callgsubr
          endchar
        </CharString>
        <CharString name="Rcaron">
          5 18 callsubr
          89 415 hstemhm
          84 1257 -855 763 -253 345 hintmask 00001010
          698 -66 callgsubr
          hintmask 00000000
          -402 -1936 rmoveto
          -67 callsubr
          hintmask 11010100
          -24 callgsubr
          hintmask 11100001
          -12 callsubr
          hintmask 11010100
          -42 callgsubr
          hintmask 11100001
          37 callgsubr
          endchar
        </CharString>
        <CharString name="Rcommaaccent">
          5 -539 -21 581 23 callgsubr
          hstemhm
          84 1257 -798 258 195 345 hintmask 00000000
          hintmask 10000010
          486 -141 -100 callgsubr
          hintmask 00000000
          -558 37 rmoveto
          -67 callsubr
          hintmask 01101100
          -24 callgsubr
          hintmask 01110001
          -12 callsubr
          hintmask 01101100
          -42 callgsubr
          hintmask 01110001
          37 callgsubr
          endchar
        </CharString>
        <CharString name="S">
          -293 -5 callsubr
          hstemhm
          -5 1068 -895 338 106 362 hintmask 00000000
          hintmask 01011000
          -5 80 -15 callgsubr
          hintmask 01100110
          -99 callsubr
          hintmask 10010010
          -41 callsubr
          endchar
        </CharString>
        <CharString name="Sacute">
          -281 -5 callsubr
          167 -21 10 callsubr
          63 489 -446 362 -4 callsubr
          hintmask 0101010000000000
          7 80 -15 callgsubr
          hintmask 0110001010000000
          -99 callsubr
          hintmask 1001000010000000
          -41 callsubr
          hintmask 0000100100000000
          597 1182 -97 callgsubr
          endchar
        </CharString>
        <CharString name="Scaron">
          -281 -5 callsubr
          73 415 10 callsubr
          -167 763 -490 362 -4 callsubr
          hintmask 0101010000000000
          7 80 -15 callgsubr
          hintmask 0110001010000000
          -99 callsubr
          hintmask 1001000010000000
          -41 callsubr
          hintmask 0000100100000000
          436 1231 -93 callsubr
          endchar
        </CharString>
        <CharString name="Scircumflex">
          -281 -5 callsubr
          172 -21 10 callsubr
          -203 763 -454 362 -4 callsubr
          hintmask 0101010000000000
          7 80 -15 callgsubr
          hintmask 0110001010000000
          -99 callsubr
          hintmask 1001000010000000
          -41 callsubr
          -4 callsubr
          336 1231 -90 callsubr
          hintmask 0000100100000000
          -33 callgsubr
        </CharString>
        <CharString name="T">
          -198 21 38 callgsubr
          hstem
          136 1111 vstem
          314 hmoveto
          360 -45 callgsubr
          rlineto
          endchar
        </CharString>
        <CharString name="Tbar">
          -186 21 -21 635 251 374 269 hstem
          148 1111 vstem
          326 hmoveto
          360 hlineto
          91 635 rlineto
          250 hlineto
          31 251 rlineto
          -245 hlineto
          54 380 352 -11 40 275 rlineto
          -1067 hlineto
          -44 -275 359 11 -54 -380 rlineto
          -235 hlineto
          -30 -251 rlineto
          229 hlineto
          endchar
        </CharString>
        <CharString name="Tcaron">
          -186 21 38 callgsubr
          70 415 hstemhm
          148 1111 -864 763 hintmask 00101000
          607 -66 callgsubr
          hintmask 11010000
          -69 -1936 rmoveto
          360 -45 callgsubr
          rlineto
          endchar
        </CharString>
        <CharString name="Thorn">
          -45 21 -21 258 265 519 246 242 -20 hstem
          940 347 vstem
          76 hmoveto
          361 hlineto
          38 270 rlineto
          -2 24 67 -10 65 hhcurveto
          424 233 275 330 -1 hvcurveto
          280 -1 -193 145 -344 hhcurveto
          -47 -44 -2 -3 -42 hvcurveto
          35 247 rlineto
          -360 hlineto
          221 -996 rmoveto
          70 506 3 -3 rlineto
          5 29 45 0 26 hhcurveto
          200 63 -80 -130 -8 hvcurveto
          -193 -12 -99 -116 -192 hhcurveto
          -46 -53 4 7 -26 hvcurveto
          endchar
        </CharString>
        <CharString name="U">
          24 callgsubr
          41 callsubr
          hintmask 00000000
          hintmask 11100000
          -88 callgsubr
          endchar
        </CharString>
        <CharString name="Uacute">
          89 1693 -21 hstemhm
          749 489 vstemhm
          892 -65 callgsubr
          -634 -1240 -106 callgsubr
          endchar
        </CharString>
        <CharString name="Ubreve">
          89 1633 217 hstemhm
          547 196 vstemhm
          871 -75 callgsubr
          -756 -1201 -106 callgsubr
          endchar
        </CharString>
        <CharString name="Ucircumflex">
          24 callgsubr
          188 -21 41 callsubr
          6 763 hintmask 00000000
          hintmask 11010000
          -88 callgsubr
          hintmask 00000000
          516 1167 -90 callsubr
          hintmask 00101000
          -33 callgsubr
        </CharString>
        <CharString name="Udieresis">
          89 1632 16 callgsubr
          460 -9 callgsubr
          hintmask 11100000
          1082 -81 callgsubr
          hintmask 00000000
          -495 -1200 -106 callgsubr
          endchar
        </CharString>
        <CharString name="Ugrave">
          89 1693 -21 hstemhm
          487 489 vstemhm
          833 1550 -71 callsubr
          -718 -1118 -106 callgsubr
          endchar
        </CharString>
        <CharString name="Uhungarumlaut">
          24 callgsubr
          156 -21 41 callsubr
          -17 959 hintmask 00000000
          hintmask 11010000
          -88 callgsubr
          hintmask 00101000
          957 1127 -51 callsubr
        </CharString>
        <CharString name="Umacron">
          89 1707 209 hstemhm
          575 597 vstemhm
          575 1707 -29 callgsubr
          -480 -1484 -106 callgsubr
          endchar
        </CharString>
        <CharString name="Uogonek">
          101 -489 -21 494 271 -250 -21 25 -21 1542 -20 hstemhm
          127 362 1 136 hintmask 00000000
          hintmask 10101100
          127 432 rmoveto
          -276 1 156 -172 349 hhcurveto
          37 36 2 2 34 hvcurveto
          hintmask 11001010
          -99 -50 -151 -121 -133 vvcurveto
          -105 84 -89 129 145 103 40 83 81 vhcurveto
          -41 175 rlineto
          -44 -56 -42 -21 -55 hhcurveto
          -39 -28 15 57 64 153 137 121 72 hvcurveto
          -10 1 159 91 89 168 38 269 rlinecurve
          130 933 rlineto
          -352 hlineto
          -127 -896 rlineto
          -295 -44 -78 -84 -163 hhcurveto
          hintmask 11001100
          -144 -53 45 150 -1 hvcurveto
          57 1 62 10 73 vhcurveto
          hintmask 10011010
          126 888 rlineto
          -353 hlineto
          hintmask 10011100
          -133 -933 rlineto
          hintmask 10101100
          -9 -59 -5 -54 1 -52 rrcurveto
          endchar
        </CharString>
        <CharString name="Uring">
          89 -16 271 1216 139 -80 -20 368 136 41 callsubr
          55 19 callsubr
          hintmask 00000000
          hintmask 10101000
          -88 callgsubr
          hintmask 01010110
          740 1039 -60 callsubr
        </CharString>
        <CharString name="Utilde">
          89 1592 5 callsubr
          466 904 44 callsubr
          572 1647 -9 callsubr
          hintmask 10010000
          -75 callsubr
          hintmask 01110000
          -48 callsubr
          hintmask 00000000
          -351 -1351 -106 callgsubr
          endchar
        </CharString>
        <CharString name="V">
          -118 1 callsubr
          103 1297 vstem
          328 hmoveto
          412 hlineto
          660 -57 callgsubr
          -375 hlineto
          -356 -980 -77 -262 -17 262 -118 980 11 callsubr
          endchar
        </CharString>
        <CharString name="W">
          452 1 callsubr
          97 1904 vstem
          282 hmoveto
          -85 callsubr
        </CharString>
        <CharString name="Wacute">
          464 -23 callsubr
          109 1904 -1082 489 hintmask 00101000
          1074 -65 callgsubr
          hintmask 11010000
          -637 -1672 rmoveto
          -85 callsubr
        </CharString>
        <CharString name="Wcircumflex">
          464 43 callsubr
          109 1904 -1348 763 hintmask 11010000
          294 hmoveto
          -83 callsubr
          hintmask 00000000
          704 20 callsubr
          hintmask 00101000
          -33 callgsubr
        </CharString>
        <CharString name="Wdieresis">
          464 -68 callgsubr
          122 16 callgsubr
          109 1904 -1371 -9 callgsubr
          hintmask 00101100
          1264 -81 callgsubr
          hintmask 11010000
          -498 -1632 rmoveto
          -85 callsubr
        </CharString>
        <CharString name="Wgrave">
          464 -23 callsubr
          109 1904 -1344 489 hintmask 00101000
          1015 1550 -71 callsubr
          hintmask 11010000
          -721 -1550 rmoveto
          -85 callsubr
        </CharString>
        <CharString name="X">
          -107 1 callsubr
          -99 1502 vstem
          -99 hmoveto
          396 hlineto
          322 530 201 -531 386 1 -347 735 544 795 rlineto
          -386 hlineto
          -317 -493 -177 493 rlineto
          -380 hlineto
          321 -722 rlineto
          endchar
        </CharString>
        <CharString name="Y">
          -187 1 callsubr
          83 1273 vstem
          317 -79 callgsubr
          endchar
        </CharString>
        <CharString name="Yacute">
          -175 -23 callsubr
          95 1273 -763 489 hintmask 11010000
          329 -79 callgsubr
          hintmask 00101000
          334 960 -97 callgsubr
          endchar
        </CharString>
        <CharString name="Ycircumflex">
          -175 43 callsubr
          95 1273 -1029 763 hintmask 11010000
          329 -79 callgsubr
          hintmask 00000000
          73 1009 -90 callsubr
          hintmask 00101000
          -33 callgsubr
        </CharString>
        <CharString name="Ydieresis">
          -175 -68 callgsubr
          hstemhm
          95 1273 vstemhm
          329 -79 callgsubr
          524 1042 -107 callgsubr
          endchar
        </CharString>
        <CharString name="Ygrave">
          -175 -23 callsubr
          95 1273 -1025 489 hintmask 11010000
          329 -79 callgsubr
          hintmask 00101000
          275 960 -17 callgsubr
        </CharString>
        <CharString name="Z">
          7 callgsubr
          hstemhm
          -68 1325 hintmask 00000000
          hintmask 11010000
          -41 hmoveto
          -27 callgsubr
          hintmask 10110000
          742 1088 rlineto
          hintmask 11010000
          -10 callgsubr
        </CharString>
        <CharString name="Zacute">
          7 callgsubr
          163 -21 hstemhm
          -68 1325 -604 489 hintmask 00000000
          hintmask 11001000
          -41 hmoveto
          -27 callgsubr
          hintmask 10101000
          742 1088 rlineto
          hintmask 11001000
          -48 callgsubr
          hintmask 00010100
          864 1461 -97 callgsubr
          endchar
        </CharString>
        <CharString name="Zcaron">
          7 callgsubr
          69 415 hstemhm
          -68 1325 -834 763 hintmask 00010100
          635 -66 callgsubr
          hintmask 00000000
          -464 -1936 -15 callsubr
        </CharString>
        <CharString name="Zdotaccent">
          7 callgsubr
          82 16 callgsubr
          -68 1325 -676 392 hintmask 00010100
          755 1612 -100 callsubr
          hintmask 00000000
          -796 -1612 -15 callsubr
        </CharString>
        <CharString name="a">
          -62 callgsubr
          endchar
        </CharString>
        <CharString name="aacute">
          -57 callsubr
          70 548 -27 callsubr
          224 543 -104 callsubr
          259 1002 -34 callgsubr
        </CharString>
        <CharString name="abreve">
          -57 callsubr
          144 217 -27 callsubr
          54 196 -104 callsubr
          289 1076 -105 callsubr
          endchar
        </CharString>
        <CharString name="acircumflex">
          -57 callsubr
          72 442 -27 callsubr
          -18 763 -104 callsubr
          31 1005 -26 callsubr
        </CharString>
        <CharString name="acute">
          -786 1226 548 hstem
          19 543 vstem
          143 1226 -34 callgsubr
        </CharString>
        <CharString name="acute.cap">
          -819 1693 -21 hstem
          21 489 vstem
          164 -65 callgsubr
          endchar
        </CharString>
        <CharString name="adieresis">
          -62 callgsubr
          hintmask 00000000
          507 1114 -107 callgsubr
          endchar
        </CharString>
        <CharString name="ae">
          419 -16 242 -242 262 700 210 -196 196 hstemhm
          68 372 930 344 hintmask 00000000
          hintmask 10101100
          394 -16 -54 callgsubr
          hintmask 10011100
          140 3 63 259 127 hhcurveto
          53 22 -31 -70 hvcurveto
          hintmask 10101100
          -161 -150 -130 -118 -7 vhcurveto
          hintmask 01101100
          -16 callgsubr
        </CharString>
        <CharString name="aeacute">
          419 -16 242 720 210 -196 196 70 548 hstemhm
          68 372 439 543 -52 344 hintmask 00010100
          1003 1226 -94 callsubr
          hintmask 00000000
          -485 -1341 -54 callgsubr
          hintmask 11001010
          140 3 63 259 127 hhcurveto
          53 22 -31 -70 hvcurveto
          hintmask 10101010
          -161 -150 -130 -118 -7 vhcurveto
          hintmask 11001010
          -16 callgsubr
        </CharString>
        <CharString name="afii61352">
          1161 0 207 305 185 651 184 hstem
          1567 312 317 317 vstem
          1567 926 rmoveto
          -208 104 -206 271 378 193 293 313 208 -104 206 -271 -378 -193 -293 -313 vhcurveto
          -1475 -926 rmoveto
          325 hlineto
          104 778 17 297 105 -299 315 -776 rlineto
          303 hlineto
          193 -57 callgsubr
          -328 hlineto
          -87 -758 -21 -262 -88 258 -319 762 rlineto
          -326 hlineto
          1594 -629 rmoveto
          211 57 236 154 74 32 -76 -137 -212 -50 -226 -159 -73 -35 76 128 vhcurveto
          -361 -901 rmoveto
          853 hlineto
          18 207 rlineto
          -853 hlineto
          endchar
        </CharString>
        <CharString name="agrave">
          -57 callsubr
          70 548 -27 callsubr
          -87 543 -104 callsubr
          243 1002 -73 callgsubr
        </CharString>
        <CharString name="amacron">
          -57 callsubr
          239 219 -27 callsubr
          64 615 -104 callsubr
          -25 1171 -29 callsubr
          endchar
        </CharString>
        <CharString name="ampersand">
          214 -16 234 376 236 496 220 hstemhm
          5 347 -89 329 244 325 hintmask 00000000
          hintmask 11110100
          5 361 rmoveto
          -261 232 -116 379 123 119 16 33 107 vhcurveto
          -35 83 99 -14 66 hhcurveto
          71 141 8 16 42 hvcurveto
          40 180 -32 -1 -29 0 -27 2 rlinecurve
          -59 4 -46 9 -39 13 rrcurveto
          91 95 55 123 153 vvcurveto
          8 156 vlineto
          20 235 -447 1 rlineto
          -90 -40 -22 -23 -19 hvcurveto
          -10 -224 22 15 35 11 42 4 rlinecurve
          3 -20 2 -24 -26 vvcurveto
          -60 -18 -51 -30 -41 vhcurveto
          -117 109 -100 134 -78 124 rrcurveto
          204 118 205 144 240 vvcurveto
          136 -79 172 -325 vhcurveto
          hintmask 11101000
          -321 -173 -197 -241 -95 34 -124 45 -105 hvcurveto
          hintmask 11110100
          -179 -100 -158 -121 -202 vvcurveto
          hintmask 11101100
          632 584 rmoveto
          -23 58 -22 74 69 vvcurveto
          104 51 76 74 85 34 -46 -82 -107 -84 -77 -115 -69 vhcurveto
          hintmask 11110000
          -285 -554 rmoveto
          65 45 54 69 53 vhcurveto
          77 -125 63 -93 122 -123 rrcurveto
          -3 -29 -29 -1 -30 hhcurveto
          -166 -122 39 134 hvcurveto
          endchar
        </CharString>
        <CharString name="aogonek">
          -83 -489 -21 494 240 -219 -21 37 -21 946 210 -27 callsubr
          75 281 hintmask 00000000
          hintmask 10101110
          406 -16 rmoveto
          166 107 142 122 56 hvcurveto
          hintmask 10011110
          -11 -248 rlineto
          68 hlineto
          -76 callsubr
          161 1156 -184 -45 rlineto
          21 -61 -103 24 -84 -13 callgsubr
          hintmask 10101110
          -65 callsubr
          vhcurveto
          hintmask 11001110
          125 240 rmoveto
          -60 -29 73 -44 callgsubr
          26 -1 -4 23 hvcurveto
          -47 -335 rlineto
          -143 -41 -103 -239 -101 hhcurveto
          endchar
        </CharString>
        <CharString name="approxequal">
          -288 237 262 -80 252 62 262 -80 252 hstemhm
          -6 1060 -990 1060 hintmask 00000000
          hintmask 01001000
          142 310 40 callsubr
          hintmask 10001000
          -30 callsubr
          hintmask 01001000
          -1 callgsubr
          hintmask 00000000
          218 355 40 callsubr
          hintmask 00010100
          -30 callsubr
          hintmask 00100100
          -1 callgsubr
          endchar
        </CharString>
        <CharString name="aring">
          -57 callsubr
          97 143 268 140 -27 callsubr
          58 19 callsubr
          -4 callsubr
          hintmask 0101001000000000
          406 -16 rmoveto
          166 107 142 122 56 hvcurveto
          hintmask 0011001000000000
          -11 -248 rlineto
          320 hlineto
          161 1156 -184 -45 rlineto
          21 -61 -103 24 -84 -13 callgsubr
          hintmask 0101001000000000
          -65 callsubr
          vhcurveto
          hintmask 1001001000000000
          125 240 rmoveto
          -60 -29 73 -44 callgsubr
          26 -1 -4 23 hvcurveto
          -47 -335 rlineto
          -143 -41 -103 -239 -101 hhcurveto
          hintmask 0000110110000000
          282 1029 -58 callgsubr
          endchar
        </CharString>
        <CharString name="asciicircum">
          13 1531 -20 hstem
          126 1065 vstem
          126 510 rmoveto
          275 hlineto
          358 650 161 -650 rlineto
          271 hlineto
          -267 1021 rlineto
          -267 hlineto
          endchar
        </CharString>
        <CharString name="asciitilde">
          -214 672 262 -80 252 hstemhm
          76 1060 hintmask 00000000
          hintmask 01100000
          224 745 40 callsubr
          hintmask 10100000
          -30 callsubr
          hintmask 01100000
          -1 callgsubr
          endchar
        </CharString>
        <CharString name="asterisk">
          15 1148 -20 22 -20 409 -20 22 -20 hstemhm
          153 1156 hintmask 00000000
          hintmask 01011000
          552 580 rmoveto
          244 -1 -12 331 -6 138 103 -84 239 -203 150 208 rlineto
          hintmask 10011000
          -299 126 -118 53 129 55 327 128 -97 210 -292 -205 -121 -81 33 135 77 331 rlineto
          -238 hlineto
          8 -331 -1 -135 -98 81 rlineto
          hintmask 01101000
          -258 203 -130 -208 299 -128 118 -53 -129 -55 -327 -126 107 -210 282 205 115 84 -28 -138 rlineto
          endchar
        </CharString>
        <CharString name="at">
          677 -440 219 232 212 660 229 236 197 hstem
          102 244 198 296 368 215 289 255 vstem
          102 374 rmoveto
          -517 352 -297 485 171 163 46 70 92 vhcurveto
          -59 171 rlineto
          -30 -62 -97 -38 -186 hhcurveto
          -321 -294 165 474 461 316 469 513 289 248 -102 -386 -305 -127 -332 -149 -9 -4 9 17 38 6 10 11 103 hvcurveto
          19 201 31 334 39 153 -195 -30 rcurveline
          39 -56 -109 15 -55 hhcurveto
          -370 -194 -347 -321 -6 hvcurveto
          -297 -6 179 -140 135 hhcurveto
          148 130 151 213 90 hvcurveto
          -6 -59 -6 -100 -47 vvcurveto
          -89 40 -65 80 289 350 327 571 388 -287 248 -454 -625 -499 -447 -724 vhcurveto
          738 110 rmoveto
          159 76 240 157 38 58 -11 -32 29 vhcurveto
          -165 -21 -157 -379 -94 hhcurveto
          -71 -15 80 108 hvcurveto
          endchar
        </CharString>
        <CharString name="atilde">
          -57 callsubr
          144 244 -27 callsubr
          -56 864 -104 callsubr
          -39 1141 -95 callgsubr
        </CharString>
        <CharString name="b">
          32 callsubr
          hstemhm
          846 374 hintmask 00000000
          hintmask 01011000
          76 hmoveto
          hintmask 10011000
          185 34 rlineto
          -2 vlineto
          -22 59 109 -26 88 -52 callgsubr
          hintmask 10101000
          -16 callsubr
          hintmask 10011000
          -29 -27 1 4 -25 hvcurveto
          endchar
        </CharString>
        <CharString name="backslash">
          -497 -362 1959 hstem
          6 845 vstem
          851 -362 rmoveto
          -577 1959 rlineto
          -268 hlineto
          576 -1959 rlineto
          endchar
        </CharString>
        <CharString name="bar">
          26 callsubr
          -186 rmoveto
          253 1966 -253 hlineto
          endchar
        </CharString>
        <CharString name="braceleft">
          -327 -272 242 1609 233 hstem
          51 992 vstem
          181 -92 rmoveto
          -110 -1 50 -70 146 hhcurveto
          138 135 41 36 92 hvcurveto
          0 19 150 3 15 vhcurveto
          -275 hlineto
          92 592 9 61 -20 17 -30 31 rlinecurve
          -29 30 -102 39 -59 31 rrcurveto
          0 176 58 29 17 vhcurveto
          53 33 27 27 8 54 94 619 rcurveline
          276 hlineto
          31 176 rlineto
          0 -220 57 -110 -178 -74 -64 -198 -33 vhcurveto
          -88 -538 -4 -23 -26 -31 -35 -19 rlinecurve
          -52 -27 -75 -12 -65 -16 -32 -203 rcurveline
          59 -14 63 -15 43 -29 rrcurveto
          32 -21 20 -34 -22 vvcurveto
          0 -86 -609 -1 -29 vhcurveto
          endchar
        </CharString>
        <CharString name="braceright">
          -327 -266 233 1609 242 hstem
          30 992 vstem
          892 1638 rmoveto
          110 1 -50 70 -146 hhcurveto
          -138 -135 -41 -36 -92 hvcurveto
          0 -19 -150 -3 -15 vhcurveto
          275 hlineto
          -92 -592 -9 -61 20 -17 30 -31 rlinecurve
          29 -30 102 -39 59 -31 rrcurveto
          0 -176 -58 -29 -17 vhcurveto
          -53 -33 -27 -27 -8 -54 -94 -619 rcurveline
          -276 hlineto
          -31 -176 rlineto
          0 220 -57 110 178 74 64 198 33 vhcurveto
          88 538 4 23 26 31 35 19 rlinecurve
          52 27 75 12 65 16 32 203 rcurveline
          -59 14 -63 15 -43 29 rrcurveto
          -32 21 -20 34 22 vvcurveto
          0 86 609 1 29 vhcurveto
          endchar
        </CharString>
        <CharString name="bracketleft">
          -497 -259 229 1610 222 hstem
          130 802 vstem
          138 33 rmoveto
          -6 -40 -2 -36 -34 vvcurveto
          -110 71 -72 126 159 93 30 26 91 vhcurveto
          22 173 rlineto
          -255 hlineto
          214 1610 rlineto
          255 hlineto
          26 175 rlineto
          0 -192 47 -138 -158 -71 -97 -192 -27 vhcurveto
          endchar
        </CharString>
        <CharString name="bracketright">
          -497 -246 222 1610 229 hstem
          -16 802 vstem
          778 1523 rmoveto
          6 40 2 36 34 vvcurveto
          110 -71 72 -126 -159 -93 -30 -26 -91 vhcurveto
          -22 -173 rlineto
          255 hlineto
          -214 -1610 rlineto
          -255 hlineto
          -26 -175 rlineto
          0 192 -47 138 158 71 97 192 27 vhcurveto
          endchar
        </CharString>
        <CharString name="breve">
          -627 1300 217 hstem
          37 196 vstem
          361 1300 -105 callsubr
          endchar
        </CharString>
        <CharString name="breve.cap">
          -629 1633 217 hstem
          37 196 vstem
          361 -75 callgsubr
          endchar
        </CharString>
        <CharString name="brokenbar">
          26 callsubr
          916 rmoveto
          253 864 -253 hlineto
          -1966 vmoveto
          253 864 -253 hlineto
          endchar
        </CharString>
        <CharString name="bullet">
          -493 507 432 hstem
          233 427 vstem
          409 507 rmoveto
          153 98 140 120 99 -75 73 -101 -142 -109 -136 -120 -97 76 -79 100 hvcurveto
          endchar
        </CharString>
        <CharString name="c">
          -23 callgsubr
          hstemhm
          74 364 hintmask 00000000
          hintmask 01011000
          74 442 rmoveto
          -217 105 -241 309 230 134 116 85 56 vhcurveto
          -89 171 rlineto
          hintmask 10101000
          -48 -43 -108 -67 -84 hhcurveto
          -72 callgsubr
          hintmask 01011000
          0 callsubr
          hvcurveto
          endchar
        </CharString>
        <CharString name="cacute">
          -23 callgsubr
          90 548 hstemhm
          74 364 163 543 hintmask 00001010
          725 1226 -94 callsubr
          hintmask 00000000
          -527 -883 -72 callsubr
        </CharString>
        <CharString name="caron">
          -549 1258 442 hstem
          65 763 vstem
          277 -66 callsubr
          endchar
        </CharString>
        <CharString name="caron.cap">
          -551 1599 415 hstem
          55 763 vstem
          267 -66 callgsubr
          endchar
        </CharString>
        <CharString name="caronvertical">
          -1033 1037 645 hstem
          235 263 vstem
          200 1065 -74 callsubr
        </CharString>
        <CharString name="ccaron">
          -23 callgsubr
          122 442 hstemhm
          74 364 -21 763 hintmask 00001010
          629 -66 callsubr
          hintmask 00000000
          -343 -1190 -72 callsubr
        </CharString>
        <CharString name="ccedilla">
          -395 -471 222 257 -21 34 -21 878 278 0 -20 hstemhm
          74 364 -7 244 hintmask 00000000
          hintmask 10101100
          170 -233 rmoveto
          -36 -203 rlineto
          -16 23 164 -19 53 hhcurveto
          hintmask 10101010
          221 80 101 132 67 -23 113 -24 58 hvcurveto
          146 34 90 85 44 66 -89 171 rcurveline
          -48 -43 -108 -67 -84 hhcurveto
          hintmask 11010100
          -72 callgsubr
          0 callsubr
          -203 92 -224 264 -28 hvcurveto
          hintmask 10101010
          3 -30 0 -39 -2 -42 rrcurveto
          -104 -6 -73 -21 -103 hhcurveto
          hintmask 10101100
          -32 -30 8 8 -17 hvcurveto
          endchar
        </CharString>
        <CharString name="ccircumflex">
          -23 callgsubr
          92 442 hstemhm
          74 364 -79 763 hintmask 00001010
          497 1229 -91 callsubr
          hintmask 00000000
          -285 -854 -72 callsubr
        </CharString>
        <CharString name="cdotaccent">
          -23 callgsubr
          177 368 hstemhm
          74 364 138 387 41 callgsubr
          74 442 rmoveto
          -217 105 -241 309 230 134 116 85 56 vhcurveto
          -89 171 rlineto
          hintmask 10100100
          -48 -43 -108 -67 -84 hhcurveto
          -72 callgsubr
          hintmask 01010100
          0 callsubr
          hvcurveto
          hintmask 00001010
          671 871 -106 callsubr
          endchar
        </CharString>
        <CharString name="cedilla">
          -867 -471 222 -222 505 hstemhm
          234 244 hintmask 00000000
          hintmask 01100000
          227 30 rmoveto
          7 -26 4 -60 -4 -68 rrcurveto
          hintmask 10100000
          -46 callsubr
          82 -34 150 -28 36 hvcurveto
          -89 4 rlineto
          endchar
        </CharString>
        <CharString name="cent">
          -274 1150 -20 hstem
          91 364 vstem
          346 10 rmoveto
          -52 -285 rlineto
          240 hlineto
          48 264 183 21 110 100 50 75 rlinecurve
          -89 171 rlineto
          -48 -43 -108 -67 -84 8 callsubr
          -33 83 174 261 109 119 121 78 102 -88 -19 19 hvcurveto
          86 342 -39 17 -67 13 -61 7 rlinecurve
          64 278 rlineto
          -240 hlineto
          -66 -291 rlineto
          -279 -70 -191 -267 -358 vvcurveto
          -175 68 -189 187 -68 vhcurveto
          endchar
        </CharString>
        <CharString name="circumflex">
          -548 1228 442 hstem
          35 763 vstem
          173 1229 -26 callsubr
        </CharString>
        <CharString name="circumflex.cap">
          -549 1687 -21 32 -21 hstemhm
          19 763 hintmask 00000000
          hintmask 01100000
          167 1599 -90 callsubr
          hintmask 10100000
          -33 callgsubr
        </CharString>
        <CharString name="colon">
          -825 -8 -21 830 -21 hstemhm
          9 369 -276 369 hintmask 10100000
          9 123 -90 callgsubr
          hintmask 01010000
          93 809 -86 callsubr
        </CharString>
        <CharString name="colonmonetary">
          63 1535 -20 hstem
          203 1150 vstem
          543 -343 rmoveto
          109 hlineto
          50 329 rlineto
          -1 19 17 -1 19 hhcurveto
          19 20 1 1 19 hvcurveto
          -50 -329 rlineto
          110 hlineto
          51 340 153 23 118 53 61 60 rlinecurve
          -66 184 -68 -43 -73 -40 -92 -21 rlinecurve
          164 1089 80 -15 58 -21 20 -19 rlinecurve
          72 245 -56 15 -55 17 -83 11 rlinecurve
          42 278 rlineto
          -109 hlineto
          -41 -269 rlineto
          1 -20 -21 1 -23 hhcurveto
          -17 -16 -1 -1 -17 hvcurveto
          41 269 rlineto
          -109 hlineto
          -43 -284 rlineto
          -365 -77 -258 -338 -472 vvcurveto
          -272 99 -288 293 -78 vhcurveto
          306 1303 rmoveto
          5 25 26 3 25 13 13 -1 13 hhcurveto
          -169 -1116 rlineto
          -1 -11 -11 0 -11 hhcurveto
          -29 -26 3 6 -24 hvcurveto
          -101 56 rmoveto
          -80 76 -31 135 4 179 5 284 95 227 158 98 rrcurveto
          endchar
        </CharString>
        <CharString name="comma">
          -825 -519 814 hstem
          125 278 vstem
          -18 callsubr
          endchar
        </CharString>
        <CharString name="commaaccent">
          -980 -539 -21 hstemhm
          83 258 hintmask 00000000
          hintmask 11000000
          26 -141 -100 callgsubr
          endchar
        </CharString>
        <CharString name="copyright">
          740 84 129 258 213 566 205 257 126 hstem
          175 142 282 251 923 143 vstem
          175 963 rmoveto
          -487 384 -392 486 486 385 392 487 486 -385 389 -486 -486 -384 -389 -486 vhcurveto
          142 hmoveto
          413 309 336 419 419 309 -336 -413 -414 -309 -336 -419 -419 -309 336 414 vhcurveto
          282 -9 rmoveto
          -259 1 176 -224 274 hhcurveto
          133 124 50 53 61 hvcurveto
          -44 173 rlineto
          -28 -39 -79 -35 -107 hhcurveto
          -145 -106 87 221 2 hvcurveto
          155 1 102 103 145 hhcurveto
          81 90 -25 -30 42 hvcurveto
          37 205 rlineto
          23 -41 -100 32 -113 hhcurveto
          -325 -172 -217 -284 2 hvcurveto
          endchar
        </CharString>
        <CharString name="currency">
          189 252 222 432 222 hstem
          342 234 412 234 vstem
          204 243 rmoveto
          142 -141 211 211 rlineto
          -39 66 77 -22 82 hhcurveto
          85 80 24 41 67 hvcurveto
          211 -210 142 141 -211 211 rlineto
          42 67 24 79 85 vvcurveto
          82 -23 76 -39 65 vhcurveto
          209 209 -141 142 -207 -206 rlineto
          44 -69 -82 26 -88 hhcurveto
          -84 -78 -24 -40 -67 hvcurveto
          -211 213 -141 -142 209 -210 rlineto
          -43 -68 -25 -80 -87 vvcurveto
          -88 26 -82 44 -69 vhcurveto
          164 239 rmoveto
          118 92 98 114 114 92 -98 -118 -118 -92 -98 -114 -114 -92 98 118 vhcurveto
          endchar
        </CharString>
        <CharString name="d">
          -77 0 callgsubr
          -6 -20 -27 callsubr
          41 callgsubr
          -35 callsubr
          hintmask 00101100
          -14 -279 rlineto
          319 hlineto
          211 1634 rlineto
          -344 hlineto
          -67 -484 rlineto
          hintmask 00110100
          -37 callgsubr
          hintmask 01010100
          -65 callsubr
          vhcurveto
          hintmask 10010100
          -76 callgsubr
          endchar
        </CharString>
        <CharString name="dagger">
          -536 1063 214 hstem
          123 762 vstem
          245 151 rmoveto
          217 hlineto
          133 793 39 callsubr
          -253 hlineto
          41 26 callgsubr
          -250 hlineto
          -34 -214 rlineto
          239 hlineto
          -16 -119 rlineto
          endchar
        </CharString>
        <CharString name="daggerdbl">
          -536 576 203 284 214 hstem
          58 827 vstem
          238 -51 rmoveto
          172 hlineto
          100 403 23 224 rlineto
          264 hlineto
          28 203 rlineto
          -258 hlineto
          28 165 39 callsubr
          -251 hlineto
          39 26 callgsubr
          -249 hlineto
          -32 -214 rlineto
          236 hlineto
          -16 -119 -21 -165 rlineto
          -236 hlineto
          -31 -203 rlineto
          241 hlineto
          -40 -236 rlineto
          endchar
        </CharString>
        <CharString name="dcaron">
          249 0 callgsubr
          -119 645 -532 -20 -27 callsubr
          983 263 hintmask 00000000
          hintmask 01010010
          -35 callsubr
          hintmask 00100110
          -47 callsubr
          hintmask 00001001
          859 837 -74 callsubr
        </CharString>
        <CharString name="dcroat">
          -77 0 callgsubr
          -6 -20 132 130 -27 callsubr
          hintmask 00000000
          hintmask 01010110
          -35 callsubr
          hintmask 00101110
          -14 -279 rlineto
          319 hlineto
          163 1262 rlineto
          168 hlineto
          16 130 rlineto
          -167 hlineto
          31 242 rlineto
          -344 hlineto
          -34 -242 rlineto
          -228 hlineto
          -16 -130 rlineto
          226 hlineto
          -15 -112 rlineto
          hintmask 00110110
          -37 callgsubr
          hintmask 01010110
          -65 callsubr
          vhcurveto
          hintmask 10010110
          -76 callgsubr
          endchar
        </CharString>
        <CharString name="degree">
          -394 915 186 348 185 hstem
          206 204 328 204 vstem
          561 915 rmoveto
          216 162 154 206 3 hvcurveto
          198 4 -156 161 -207 hhcurveto
          -215 -159 -155 -204 -3 hvcurveto
          -198 -4 153 -162 206 hhcurveto
          9 186 rmoveto
          -91 -71 79 96 2 hvcurveto
          99 1 70 74 96 hhcurveto
          91 72 -77 -96 -2 hvcurveto
          -100 -1 -71 -75 -96 hhcurveto
          endchar
        </CharString>
        <CharString name="dieresis">
          -534 1338 16 callgsubr
          -7 -9 callgsubr
          hintmask 11100000
          615 -89 callsubr
          endchar
        </CharString>
        <CharString name="dieresis.cap">
          -537 1632 16 callgsubr
          172 -9 callgsubr
          hintmask 11100000
          794 -81 callgsubr
          endchar
        </CharString>
        <CharString name="divide">
          46 653 264 hstem
          224 996 vstem
          760 1055 rmoveto
          129 84 87 131 80 -43 69 -118 -129 -79 -103 -112 -89 59 -63 97 hvcurveto
          -536 -402 rmoveto
          962 hlineto
          34 263 -960 2 rlineto
          232 -623 -86 callsubr
        </CharString>
        <CharString name="dollar">
          -147 11 -21 1552 -20 hstemhm
          72 1048 -896 329 132 357 hintmask 00000000
          hintmask 11100000
          72 78 rmoveto
          38 -30 146 -44 138 -14 -48 -265 rcurveline
          240 hlineto
          49 270 rlineto
          hintmask 11011000
          258 40 153 154 -4 263 -3 203 -165 136 -120 91 rrcurveto
          -141 113 -60 52 95 vvcurveto
          71 65 54 122 98 128 -41 -46 46 vhcurveto
          108 281 -45 31 -88 39 -131 11 rlinecurve
          43 251 rlineto
          -240 hlineto
          -45 -264 -236 -50 -159 -160 5 -228 rlinecurve
          4 -196 141 -142 124 -93 rrcurveto
          145 -106 47 -65 -88 vvcurveto
          -88 -64 -52 -151 -101 -118 50 49 -64 vhcurveto
          endchar
        </CharString>
        <CharString name="dong">
          39 193 98 957 109 358 -21 hstem
          48 1420 vstem
          512 291 rmoveto
          181 91 69 40 48 hvcurveto
          -3 -21 -6 -50 -1 -3 -1 -4 -4 vvcurveto
          -12 3 -14 15 vhcurveto
          241 hlineto
          150 1066 rlineto
          214 hlineto
          23 164 rlineto
          -214 hlineto
          25 173 rlineto
          -297 hlineto
          -25 -173 rlineto
          -266 hlineto
          -23 -164 rlineto
          265 hlineto
          -15 -131 rlineto
          11 -35 -52 11 -80 hhcurveto
          -344 -250 -239 -363 -241 157 -114 198 hvcurveto
          90 215 rmoveto
          -80 -62 52 125 196 85 163 184 103 35 -23 -14 14 hvcurveto
          -60 -431 rlineto
          -19 -27 -55 -49 -137 hhcurveto
          531 -506 rmoveto
          27 193 rlineto
          -1085 hlineto
          -27 -193 rlineto
          endchar
        </CharString>
        <CharString name="dotaccent">
          -959 1313 368 hstem
          1 387 vstem
          170 1313 -106 callsubr
          endchar
        </CharString>
        <CharString name="dotaccent.cap">
          -958 1612 363 hstem
          -4 392 vstem
          170 1612 -50 callsubr
        </CharString>
        <CharString name="dotlessi">
          -43 callsubr
          hstem
          80 515 vstem
          80 hmoveto
          -31 callsubr
          -84 callgsubr
          endchar
        </CharString>
        <CharString name="dotlessj">
          -528 206 -151 -21 1634 -20 hstemhm
          -274 869 44 callsubr
          89 65 rmoveto
          hintmask 10110000
          -59 callsubr
          hintmask 01110000
          -88 -181 rlineto
          hintmask 10110000
          -82 callsubr
          endchar
        </CharString>
        <CharString name="e">
          -32 callgsubr
          hstem
          73 371 268 344 vstem
          73 442 -92 callsubr
        </CharString>
        <CharString name="eacute">
          -32 callgsubr
          70 548 45 callgsubr
          142 543 -417 344 hintmask 00101000
          710 1226 -94 callsubr
          hintmask 11010100
          -513 -883 -92 callsubr
        </CharString>
        <CharString name="ebreve">
          -32 callgsubr
          144 217 45 callgsubr
          -28 196 100 344 hintmask 11010100
          73 442 -105 callgsubr
          hintmask 00101000
          296 739 -105 callsubr
          endchar
        </CharString>
        <CharString name="ecaron">
          -32 callgsubr
          102 442 45 callgsubr
          -42 763 -453 344 hintmask 00101000
          614 -66 callsubr
          hintmask 11010100
          -329 -1190 -92 callsubr
        </CharString>
        <CharString name="ecircumflex">
          -32 callgsubr
          72 442 45 callgsubr
          -100 763 -395 344 hintmask 00101000
          482 1229 -91 callsubr
          hintmask 11010100
          -271 -854 -92 callsubr
        </CharString>
        <CharString name="edieresis">
          -32 callgsubr
          182 363 45 callgsubr
          -108 339 37 344 -246 339 hintmask 00000000
          hintmask 00101010
          958 -89 callsubr
          hintmask 11010100
          -413 -896 -92 callsubr
        </CharString>
        <CharString name="edotaccent">
          -32 callgsubr
          157 368 45 callgsubr
          117 387 -236 344 hintmask 11010100
          73 442 -105 callgsubr
          hintmask 00101000
          286 752 -106 callsubr
          endchar
        </CharString>
        <CharString name="egrave">
          -32 callgsubr
          70 548 45 callgsubr
          -169 543 -106 344 hintmask 11010100
          73 442 -105 callgsubr
          hintmask 00101000
          250 665 -73 callgsubr
        </CharString>
        <CharString name="eight">
          39 -20 216 1144 209 hstemhm
          126 335 -140 328 212 353 -235 310 hintmask 00000000
          hintmask 11100100
          126 350 rmoveto
          -235 1 216 -135 295 hhcurveto
          hintmask 11101000
          329 247 157 266 179 -126 126 -133 105 hvcurveto
          hintmask 11010100
          172 62 162 105 230 vvcurveto
          202 -195 137 -267 -303 -203 -164 -274 -144 79 -107 97 -90 vhcurveto
          hintmask 11100100
          -190 -59 -182 -126 1 -235 rrcurveto
          696 564 rmoveto
          hintmask 11010100
          -97 75 -76 70 81 vvcurveto
          117 55 83 107 85 83 -56 -104 vhcurveto
          hintmask 11100100
          -128 -72 -81 -85 -57 vhcurveto
          -361 -516 rmoveto
          136 75 74 87 57 vhcurveto
          hintmask 11101000
          123 -96 115 -85 -110 vvcurveto
          -107 -69 -71 -115 vhcurveto
          hintmask 11100100
          -105 -111 85 117 hvcurveto
          endchar
        </CharString>
        <CharString name="ellipsis">
          227 -8 -21 hstem
          30 369 157 369 157 369 cntrmask 01110000
          1082 123 -90 callgsubr
          -526 hmoveto
          -95 callsubr
          -526 hmoveto
          -95 callsubr
          endchar
        </CharString>
        <CharString name="emacron">
          -32 callgsubr
          239 219 45 callgsubr
          -18 615 -329 344 hintmask 11010100
          73 442 -105 callgsubr
          hintmask 00101000
          -18 834 -29 callsubr
          endchar
        </CharString>
        <CharString name="emdash">
          680 648 248 hstem
          223 1609 vstem
          223 648 rmoveto
          1572 hlineto
          37 248 rlineto
          -1572 hlineto
          endchar
        </CharString>
        <CharString name="endash">
          187 648 248 hstem
          223 1136 vstem
          223 648 rmoveto
          1099 hlineto
          37 248 rlineto
          -1099 hlineto
          endchar
        </CharString>
        <CharString name="eng">
          -29 -528 146 -88 -21 512 -64 callsubr
          36 -20 hstemhm
          76 1130 hintmask 00000000
          hintmask 01101100
          76 hmoveto
          -31 callsubr
          96 698 rlineto
          114 59 93 75 73 hhcurveto
          54 31 -25 -74 -4 hvcurveto
          -8 -164 -58 -400 -32 -224 rrcurveto
          hintmask 10101100
          -253 -36 -54 -129 -155 hhcurveto
          -11 -45 4 8 -18 hvcurveto
          hintmask 01101100
          -38 -121 rlineto
          hintmask 10101100
          -24 22 101 -13 73 hhcurveto
          298 147 96 432 73 hvcurveto
          38 227 74 527 100 vvcurveto
          224 -105 78 -172 -153 -128 -87 -135 -88 vhcurveto
          hintmask 01110100
          -7 callgsubr
          endchar
        </CharString>
        <CharString name="eogonek">
          -239 -489 -21 494 242 -220 -21 975 196 45 callgsubr
          -169 281 156 344 hintmask 00000000
          hintmask 11010110
          275 -316 rmoveto
          -105 84 -89 129 145 103 40 83 81 vhcurveto
          -41 175 rlineto
          -44 -56 -42 -21 -55 hhcurveto
          -39 -28 15 57 63 146 132 119 73 hvcurveto
          92 49 65 61 31 45 -92 171 rcurveline
          -65 -49 -147 -98 -127 hhcurveto
          hintmask 11011010
          -118 -27 61 96 hvcurveto
          333 84 274 127 299 vvcurveto
          161 -104 102 -236 -359 -284 -299 -415 vhcurveto
          hintmask 10111010
          -237 124 -221 309 vhcurveto
          4 4 1 4 hhcurveto
          hintmask 11010110
          -99 -53 -144 -119 -129 vvcurveto
          hintmask 10111010
          169 877 rmoveto
          140 3 63 259 127 hhcurveto
          53 22 -31 -70 -161 -150 -130 -118 -7 hvcurveto
          endchar
        </CharString>
        <CharString name="equal">
          -266 315 248 245 248 hstem
          106 932 vstem
          161 808 -19 callgsubr
          -92 -741 -19 callgsubr
          endchar
        </CharString>
        <CharString name="estimated">
          91 -16 163 465 156 425 163 hstem
          125 375 454 362 vstem
          500 221 rmoveto
          391 806 vlineto
          10 51 0 83 86 vvcurveto
          -10 329 -239 200 -302 -5 rrcurveto
          -435 -7 -205 -286 -392 vvcurveto
          -430 239 -257 407 199 181 70 61 88 vhcurveto
          -73 151 rlineto
          -55 -72 -145 -64 -169 hhcurveto
          -108 -97 20 54 -75 hvcurveto
          547 vmoveto
          353 vlineto
          50 66 84 22 101 hhcurveto
          87 66 -15 -25 50 hvcurveto
          -385 vlineto
          endchar
        </CharString>
        <CharString name="eth">
          -139 -16 198 793 183 498 -21 hstem
          66 374 341 365 vstem
          66 423 rmoveto
          -214 143 -225 307 419 211 357 461 262 -76 298 -207 204 vhcurveto
          126 140 -118 115 rlineto
          0 -70 -82 -64 -71 vhcurveto
          -94 66 -105 52 -110 28 -60 -179 rcurveline
          94 -27 69 -41 64 -57 -119 -121 rcurveline
          126 -114 102 113 48 -69 45 -85 5 -123 rlinecurve
          28 -31 -56 19 -94 hhcurveto
          -336 -219 -277 -458 hvcurveto
          480 -241 rmoveto
          -69 -37 101 128 248 63 316 137 86 58 -59 -47 -3 hvcurveto
          -52 -17 -205 -10 -61 vhcurveto
          -205 -27 -82 -164 -99 hhcurveto
          endchar
        </CharString>
        <CharString name="exclam">
          -665 -8 -21 hstem
          95 607 vstem
          201 -14 callgsubr
          endchar
        </CharString>
        <CharString name="exclamdbl">
          -48 -8 -21 hstemhm
          95 607 11 607 hintmask 10100000
          819 -14 callgsubr
          hintmask 11000000
          -512 365 rmoveto
          258 hlineto
          243 1290 rlineto
          -365 hlineto
          -242 -1655 -86 callsubr
        </CharString>
        <CharString name="exclamdown">
          -665 1352 21 hstem
          18 607 vstem
          519 856 rmoveto
          -258 hlineto
          -243 -1290 rlineto
          365 hlineto
          242 1655 rmoveto
          28 callgsubr
          129 79 103 112 vhcurveto
          endchar
        </CharString>
        <CharString name="f">
          -586 -1 callsubr
          hintmask 00000000
          hintmask 11011000
          110 hmoveto
          -97 callsubr
          hintmask 11101000
          -60 callgsubr
          hintmask 11011000
          2 callgsubr
          hintmask 11101000
          22 -54 -69 -98 callsubr
          endchar
        </CharString>
        <CharString name="f_f">
          179 -1 callsubr
          -80 845 hintmask 00000000
          hintmask 11011000
          110 hmoveto
          -97 callsubr
          hintmask 11101000
          -60 callgsubr
          hintmask 11011000
          2 callgsubr
          hintmask 11101000
          22 -54 -69 -98 callsubr
          hintmask 00000000
          638 -924 rmoveto
          -97 callsubr
          hintmask 11010100
          -60 callgsubr
          hintmask 11100100
          2 callgsubr
          hintmask 11010100
          22 -54 -69 -98 callsubr
          endchar
        </CharString>
        <CharString name="f_f_i">
          -102 callsubr
        </CharString>
        <CharString name="f_f_i_trk">
          -102 callsubr
        </CharString>
        <CharString name="f_f_l">
          844 -1 callsubr
          -80 845 -107 579 hintmask 10000010
          1613 -19 callsubr
          hintmask 00000000
          -1723 -1634 rmoveto
          -97 callsubr
          hintmask 11011000
          -60 callgsubr
          hintmask 11101000
          2 callgsubr
          hintmask 11011000
          22 -54 -69 -98 callsubr
          hintmask 11101000
          638 -924 rmoveto
          -97 callsubr
          hintmask 00000000
          -60 callgsubr
          hintmask 11010100
          2 callgsubr
          hintmask 11100100
          22 -54 -69 -98 callsubr
          endchar
        </CharString>
        <CharString name="f_i_trk">
          -79 callsubr
        </CharString>
        <CharString name="ffi_dflt">
          -102 callsubr
        </CharString>
        <CharString name="fi">
          -79 callsubr
        </CharString>
        <CharString name="fi_trk">
          46 callsubr
        </CharString>
        <CharString name="five">
          -175 -366 243 500 228 260 275 -275 291 hstemhm
          34 1046 -419 391 hintmask 00000000
          hintmask 10101000
          71 -117 rmoveto
          -37 -232 rlineto
          -14 40 57 -3 33 hhcurveto
          hintmask 11100100
          511 377 218 389 267 -172 97 -210 -93 -87 -18 -17 -38 hvcurveto
          78 295 rlineto
          468 hlineto
          hintmask 10011000
          82 291 rlineto
          -208 hlineto
          hintmask 11100100
          -22 -16 rlineto
          -587 hlineto
          -154 -681 126 -135 rlineto
          28 49 105 25 72 hhcurveto
          162 38 -77 -99 -249 -316 -75 -195 hvcurveto
          hintmask 10101000
          -23 -25 1 5 -31 hvcurveto
          endchar
        </CharString>
        <CharString name="fl">
          79 -1 callsubr
          -107 579 hintmask 10000100
          848 -19 callsubr
          hintmask 00000000
          -958 -1634 rmoveto
          -97 callsubr
          hintmask 11011000
          -60 callgsubr
          hintmask 11101000
          2 callgsubr
          hintmask 11011000
          22 -54 -69 -98 callsubr
          endchar
        </CharString>
        <CharString name="florin">
          -292 939 216 299 216 -5 -21 hstemhm
          162 893 hintmask 00000000
          hintmask 10110000
          162 -355 rmoveto
          348 hlineto
          3 43 313 134 978 vhcurveto
          190 hlineto
          24 216 rlineto
          -189 hlineto
          26 144 rlineto
          hintmask 11010000
          25 114 39 40 76 1 57 1 47 -38 11 -11 rrcurveto
          hintmask 10110000
          2 callgsubr
          hintmask 11010000
          22 -54 -69 4 -56 hhcurveto
          -270 -184 -177 -248 -36 hvcurveto
          -17 -90 -161 -30 -21 -186 rlineto
          152 hlineto
          endchar
        </CharString>
        <CharString name="four">
          -47 0 230 937 -20 hstem
          1 1238 vstem
          79 hmoveto
          596 hlineto
          -49 -375 rlineto
          329 hlineto
          47 375 rlineto
          200 hlineto
          37 261 -201 -14 47 402 -323 -35 -52 -375 -365 -17 79 111 510 834 -82 89 rlineto
          -297 hlineto
          -160 -361 -212 -365 -182 -366 rrcurveto
          endchar
        </CharString>
        <CharString name="four.numr">
          -87 704 201 -201 219 753 -21 hstemhm
          52 1084 hintmask 00000000
          hintmask 10110000
          113 704 rmoveto
          25 callgsubr
          hintmask 01110000
          -10 callsubr
          hintmask 10110000
          -2 callsubr
          -550 -926 rlineto
          endchar
        </CharString>
        <CharString name="foursuperior">
          46 callsubr
        </CharString>
        <CharString name="fraction">
          -325 1 callsubr
          79 940 vstem
          79 hmoveto
          -6 callgsubr
        </CharString>
        <CharString name="franc">
          -83 433 193 hstem
          -37 1248 vstem
          475 hmoveto
          28 205 rlineto
          299 hlineto
          33 228 rlineto
          -300 hlineto
          28 198 441 -9 31 264 -437 -6 56 406 521 -5 36 249 rlineto
          -842 hlineto
          -154 -1097 rlineto
          -219 hlineto
          -33 -228 rlineto
          220 hlineto
          -28 -205 rlineto
          endchar
        </CharString>
        <CharString name="g">
          -40 callgsubr
          -27 callsubr
          hintmask 00000000
          hintmask 10111000
          175 -217 -103 callsubr
          hintmask 11011000
          -88 callsubr
          endchar
        </CharString>
        <CharString name="gbreve">
          -40 callgsubr
          144 217 -27 callsubr
          57 196 hintmask 00000000
          hintmask 10110100
          175 -217 -103 callsubr
          hintmask 11010100
          -88 callsubr
          hintmask 00001010
          292 1072 -105 callsubr
          endchar
        </CharString>
        <CharString name="gcaron">
          -40 callgsubr
          102 442 -27 callsubr
          45 763 hintmask 00000000
          hintmask 10110100
          175 -217 -103 callsubr
          hintmask 11010100
          -88 callsubr
          hintmask 00001010
          168 1030 -92 callgsubr
          endchar
        </CharString>
        <CharString name="gcircumflex">
          -82 -517 209 313 -21 962 210 72 442 -27 callsubr
          -15 763 hintmask 00010100
          565 1229 -91 callsubr
          hintmask 00000000
          -252 -1513 -103 callsubr
          hintmask 11101000
          -88 callsubr
          endchar
        </CharString>
        <CharString name="gcommaaccent">
          -82 -517 209 313 -21 962 210 541 -21 -27 callsubr
          178 258 hintmask 00000000
          hintmask 00010100
          779 1249 rmoveto
          156 104 11 93 rlineto
          -40 4 -28 47 50 vvcurveto
          72 46 44 23 13 vhcurveto
          3 26 -101 70 rlineto
          -104 -19 -125 -121 -171 vvcurveto
          -105 68 -88 91 -19 vhcurveto
          hintmask 00000000
          -604 -1466 -103 callsubr
          hintmask 11101000
          -88 callsubr
          endchar
        </CharString>
        <CharString name="gdotaccent">
          -40 callgsubr
          157 368 -27 callsubr
          202 387 hintmask 00000000
          hintmask 10110100
          175 -217 -103 callsubr
          hintmask 11010100
          -88 callsubr
          hintmask 00001010
          282 1085 -106 callsubr
          endchar
        </CharString>
        <CharString name="germandbls">
          -22 -16 242 -205 -21 1364 221 hstemhm
          909 349 -302 328 hintmask 00000000
          hintmask 01101000
          65 hmoveto
          347 hlineto
          118 867 rlineto
          364 44 118 133 130 hhcurveto
          83 51 -53 -64 -98 -52 -69 -82 -71 hvcurveto
          -63 -65 -67 -69 -95 vvcurveto
          -87 64 -96 50 -70 vhcurveto
          hintmask 10110000
          41 -55 62 -50 -77 vvcurveto
          -88 -67 -30 -88 -1 vhcurveto
          -64 -1 -90 35 -31 35 -24 -264 rcurveline
          -25 45 77 -22 150 hhcurveto
          271 170 121 227 140 -64 94 -61 82 hvcurveto
          -67 89 -19 48 44 vvcurveto
          hintmask 01101000
          145 237 5 304 vvcurveto
          194 -168 108 -243 -264 -331 -58 -600 -89 vhcurveto
          endchar
        </CharString>
        <CharString name="grave">
          -805 1226 548 hstem
          -11 543 vstem
          408 1226 -73 callgsubr
        </CharString>
        <CharString name="grave.cap">
          -824 1693 -21 hstem
          1 489 vstem
          347 1550 -17 callgsubr
        </CharString>
        <CharString name="greater">
          44 183 1170 hstem
          255 1045 vstem
          1300 833 rmoveto
          -908 520 -26 -283 548 -290 -622 -286 -37 -311 1029 520 rlineto
          endchar
        </CharString>
        <CharString name="greaterequal">
          40 207 44 hstem
          163 1060 vstem
          1207 669 rmoveto
          16 99 -911 487 -31 -279 446 -226 -503 -198 -36 -301 rlineto
          920 -251 rmoveto
          16 207 rlineto
          -944 hlineto
          -17 -207 rlineto
          endchar
        </CharString>
        <CharString name="gtilde">
          -40 callgsubr
          144 244 -27 callsubr
          -128 864 hintmask 00000000
          hintmask 10110100
          175 -217 -103 callsubr
          hintmask 11010100
          -88 callsubr
          hintmask 00001010
          -111 1137 -95 callgsubr
        </CharString>
        <CharString name="guillemotleft">
          645 132 984 hstemhm
          174 832 -26 832 hintmask 11000000
          174 530 -20 callgsubr
          hintmask 10100000
          774 -190 -20 callgsubr
          endchar
        </CharString>
        <CharString name="guillemotright">
          645 122 984 hstemhm
          213 832 -26 832 hintmask 11000000
          1045 708 -21 callsubr
          hintmask 10100000
          838 190 -21 callsubr
          endchar
        </CharString>
        <CharString name="guilsinglleft">
          -161 132 984 hstem
          174 832 vstem
          174 530 -20 callgsubr
          endchar
        </CharString>
        <CharString name="guilsinglright">
          -161 122 984 hstem
          213 832 vstem
          1045 708 -21 callsubr
          endchar
        </CharString>
        <CharString name="h">
          -37 21 31 callgsubr
          hstem
          78 1118 vstem
          78 hmoveto
          347 hlineto
          94 -101 callsubr
          -158 -131 -92 -143 -88 vhcurveto
          29 151 75 562 rlineto
          -348 hlineto
          endchar
        </CharString>
        <CharString name="hbar">
          -37 21 31 callgsubr
          126 130 hstem
          78 1118 vstem
          78 hmoveto
          347 hlineto
          94 -101 callsubr
          -158 -131 -92 -143 -88 vhcurveto
          29 151 25 190 rlineto
          212 hlineto
          16 130 rlineto
          -210 hlineto
          32 242 rlineto
          -348 hlineto
          -33 -242 rlineto
          -123 hlineto
          -16 -130 6 callsubr
          endchar
        </CharString>
        <CharString name="hcircumflex">
          -37 21 31 callgsubr
          507 -21 hstemhm
          78 1118 -680 763 hintmask 11010000
          78 hmoveto
          347 hlineto
          94 -101 callsubr
          -158 -131 -92 -143 -88 vhcurveto
          29 151 75 562 rlineto
          -348 hlineto
          hintmask 00000000
          366 -90 -90 callsubr
          hintmask 00101000
          -33 callgsubr
        </CharString>
        <CharString name="hungarumlaut">
          -425 1223 530 hstem
          141 973 vstem
          759 1223 -44 callsubr
          endchar
        </CharString>
        <CharString name="hungarumlaut.cap">
          -420 1666 -21 hstem
          -50 959 vstem
          562 1559 -51 callsubr
        </CharString>
        <CharString name="hyphen">
          8 callgsubr
        </CharString>
        <CharString name="i">
          -43 callsubr
          193 368 46 callgsubr
          -311 387 hintmask 11010000
          80 hmoveto
          -31 callsubr
          -84 callgsubr
          hintmask 00101000
          217 -49 callsubr
          endchar
        </CharString>
        <CharString name="i.cy">
          -43 callsubr
          193 368 46 callgsubr
          -311 387 hintmask 11010000
          80 hmoveto
          -31 callsubr
          -84 callgsubr
          hintmask 00101000
          217 -49 callsubr
          endchar
        </CharString>
        <CharString name="i.dot">
          -43 callsubr
          193 368 46 callgsubr
          -311 387 hintmask 11010000
          80 hmoveto
          -31 callsubr
          -84 callgsubr
          hintmask 00101000
          217 -49 callsubr
          endchar
        </CharString>
        <CharString name="iacute">
          -43 callsubr
          106 548 46 callgsubr
          -280 543 hintmask 00101000
          439 1226 -94 callsubr
          hintmask 11010000
          -235 -1325 rmoveto
          -31 callsubr
          -84 callgsubr
          endchar
        </CharString>
        <CharString name="ibreve">
          -43 callsubr
          180 217 46 callgsubr
          -450 196 hintmask 11010000
          80 hmoveto
          -31 callsubr
          -84 callgsubr
          hintmask 00101000
          233 160 -105 callsubr
          endchar
        </CharString>
        <CharString name="icircumflex">
          -43 callsubr
          108 442 hstemhm
          73 763 -756 515 hintmask 00110000
          211 1229 -91 callsubr
          hintmask 11001000
          7 -1296 rmoveto
          -31 callsubr
          -84 callgsubr
          endchar
        </CharString>
        <CharString name="idieresis">
          -43 callsubr
          218 16 callgsubr
          65 339 -324 515 -56 339 hintmask 00000000
          hintmask 00110100
          687 -89 callsubr
          hintmask 11001000
          -135 -1338 rmoveto
          -31 callsubr
          -84 callgsubr
          endchar
        </CharString>
        <CharString name="igrave">
          -43 callsubr
          106 548 hstemhm
          4 543 -467 515 hintmask 11001000
          80 hmoveto
          -31 callsubr
          -84 callgsubr
          hintmask 00110000
          187 86 -73 callgsubr
        </CharString>
        <CharString name="ij">
          -22 -24 callsubr
          193 368 46 callgsubr
          -316 387 -275 869 -295 387 -4 callsubr
          hintmask 0101000100000000
          754 65 rmoveto
          hintmask 1001000100000000
          -59 callsubr
          hintmask 0101000100000000
          -88 -181 rlineto
          hintmask 1001000100000000
          -82 callsubr
          hintmask 0011010000000000
          -821 -1140 rmoveto
          -31 callsubr
          -84 callgsubr
          hintmask 0000101000000000
          -53 callgsubr
          hintmask 0000100010000000
          686 hmoveto
          143 73 91 111 2 hvcurveto
          90 2 -72 76 -107 2 callsubr
          -92 -109 -2 hvcurveto
          -93 -2 81 -74 90 hhcurveto
          endchar
        </CharString>
        <CharString name="ij_acutecomb">
          -23 -24 callsubr
          106 548 hstemhm
          80 1179 -295 543 hintmask 00000000
          hintmask 01110100
          439 1226 -94 callsubr
          hintmask 10110100
          163 -1638 rmoveto
          hintmask 01110100
          -88 -181 rlineto
          hintmask 10110100
          -82 callsubr
          -147 -1075 rlineto
          -59 callsubr
          hintmask 01110100
          -398 313 rmoveto
          -31 callsubr
          -84 callgsubr
          hintmask 00001010
          852 86 -34 callgsubr
        </CharString>
        <CharString name="imacron">
          -43 callsubr
          275 219 46 callgsubr
          -440 615 hintmask 11010000
          80 hmoveto
          -31 callsubr
          -84 callgsubr
          hintmask 00101000
          -81 255 -29 callsubr
          endchar
        </CharString>
        <CharString name="infinity">
          750 145 255 -250 248 427 259 -253 248 hstemhm
          87 309 1334 311 hintmask 00000000
          hintmask 01011100
          611 150 rmoveto
          182 2 140 99 104 121 rrcurveto
          hintmask 10011100
          -129 97 141 -98 254 hhcurveto
          319 193 210 258 251 -154 218 -356 -3 hvcurveto
          -184 -1 -147 -104 -109 -123 rrcurveto
          hintmask 01101100
          -100 130 -144 102 -250 1 rrcurveto
          -316 1 -194 -206 -255 vvcurveto
          hintmask 01011100
          -251 165 -228 359 5 vhcurveto
          hintmask 10011100
          604 520 rmoveto
          115 92 93 46 90 hhcurveto
          161 79 -92 -114 -138 -82 -87 -118 -133 -110 136 134 -72 hvcurveto
          hintmask 01101100
          -819 -56 rmoveto
          130 81 81 115 132 115 -134 -133 73 vhcurveto
          -114 -95 -96 -46 -89 hhcurveto
          -160 -76 103 113 hvcurveto
          endchar
        </CharString>
        <CharString name="integral">
          -264 -518 244 1722 236 -137 -20 hstemhm
          188 321 104 323 hintmask 00000000
          hintmask 10111000
          209 -175 rmoveto
          -103 -212 rlineto
          -75 49 162 -56 122 hhcurveto
          357 144 261 255 -4 hvcurveto
          -7 428 -414 383 -6 387 rrcurveto
          hintmask 11011000
          160 -3 74 92 140 hhcurveto
          86 76 -54 -30 14 hvcurveto
          hintmask 10111000
          131 183 rlineto
          hintmask 11011000
          84 -50 -141 53 -135 hhcurveto
          -361 -157 -225 -278 5 hvcurveto
          6 -423 413 -393 6 -390 rrcurveto
          -143 3 -42 -106 -155 hhcurveto
          hintmask 10111000
          -84 -101 61 38 -25 hvcurveto
          endchar
        </CharString>
        <CharString name="iogonek">
          -489 -21 531 -64 callsubr
          hstemhm
          -90 281 145 75 0 312 hintmask 00000000
          hintmask 11101000
          505 1313 rmoveto
          hintmask 11100100
          143 73 91 111 2 hvcurveto
          90 2 -72 76 -107 hhcurveto
          hintmask 11101000
          -124 -84 -92 -109 -2 hvcurveto
          -93 -2 81 -74 90 hhcurveto
          -425 -1313 rmoveto
          105 hlineto
          hintmask 11111000
          -76 callsubr
          158 1140 rlineto
          -359 hlineto
          endchar
        </CharString>
        <CharString name="itilde">
          -43 callsubr
          180 244 hstemhm
          35 864 -819 515 hintmask 11001000
          80 hmoveto
          -31 callsubr
          -84 callgsubr
          hintmask 00110000
          -95 225 -95 callgsubr
        </CharString>
        <CharString name="j">
          -686 -528 206 -151 -21 1634 -20 193 368 hstemhm
          -273 869 -310 387 hintmask 00000000
          hintmask 01101000
          90 65 rmoveto
          hintmask 10101000
          -59 callsubr
          hintmask 01101000
          -88 -181 rlineto
          hintmask 10101000
          -82 callsubr
          hintmask 00010100
          218 -49 callsubr
          endchar
        </CharString>
        <CharString name="jcircumflex">
          -528 206 -151 -21 1634 -20 108 442 hstemhm
          -274 869 -526 763 hintmask 00000000
          hintmask 01101000
          89 65 rmoveto
          hintmask 10101000
          -59 callsubr
          hintmask 01101000
          -88 -181 rlineto
          hintmask 10101000
          -82 callsubr
          hintmask 00010100
          -29 89 -26 callsubr
        </CharString>
        <CharString name="k">
          -125 -43 callsubr
          hstem
          78 1143 vstem
          78 hmoveto
          -38 callgsubr
        </CharString>
        <CharString name="kcommaaccent">
          -125 11 callgsubr
          1140 -20 hstemhm
          78 1143 -694 9 callsubr
          470 -141 -100 callgsubr
          hintmask 01110000
          -548 37 rmoveto
          -38 callgsubr
        </CharString>
        <CharString name="kgreenlandic">
          -126 -43 callsubr
          hstem
          76 1143 vstem
          811 hmoveto
          385 hlineto
          -321 622 101 55 134 123 69 169 rlinecurve
          22 54 15 57 3 60 rrcurveto
          -353 hlineto
          -15 -60 -20 -57 -24 -55 -69 -152 -61 -111 -134 -74 3 -1 rcurveline
          -3 hlineto
          -467 -630 rmoveto
          -31 callsubr
          155 1140 rlineto
          -357 hlineto
          endchar
        </CharString>
        <CharString name="l">
          -686 21 -21 hstem
          83 579 vstem
          31 callsubr
          endchar
        </CharString>
        <CharString name="lacute">
          -686 -23 callsubr
          83 565 -314 489 hintmask 11010000
          83 hmoveto
          -31 callsubr
          208 -57 callgsubr
          -359 hlineto
          hintmask 00101000
          188 20 -97 callgsubr
          endchar
        </CharString>
        <CharString name="lcaron">
          -509 23 -21 1005 645 hstemhm
          84 579 135 263 hintmask 10100000
          84 2 rmoveto
          -14 callsubr
          hintmask 01010000
          459 -601 -74 callsubr
        </CharString>
        <CharString name="lcommaaccent">
          -686 11 callgsubr
          hstemhm
          83 579 -540 258 hintmask 00000000
          hintmask 10010000
          65 -141 -100 callgsubr
          hintmask 01100000
          -138 37 rmoveto
          -14 callsubr
          endchar
        </CharString>
        <CharString name="ldot">
          -456 21 -21 645 -21 hstemhm
          83 579 -28 369 hintmask 10100000
          31 callsubr
          hintmask 01010000
          331 -858 -86 callsubr
        </CharString>
        <CharString name="less">
          44 180 1170 hstem
          199 1045 vstem
          199 700 rmoveto
          908 -520 26 283 -548 290 622 286 37 311 -1029 -520 rlineto
          endchar
        </CharString>
        <CharString name="lessequal">
          40 0 207 hstem
          153 1076 vstem
          207 703 rmoveto
          908 -452 30 271 -468 211 513 206 39 289 -1017 -446 rlineto
          -59 -782 rmoveto
          945 hlineto
          16 207 rlineto
          -944 hlineto
          endchar
        </CharString>
        <CharString name="lira">
          155 736 153 154 290 hstem
          -17 1447 vstem
          -17 104 rmoveto
          -64 46 -60 97 73 91 44 65 54 vhcurveto
          -21 163 182 -88 256 hhcurveto
          432 53 240 148 104 -67 131 -96 51 hvcurveto
          -197 -158 rlineto
          27 -13 49 -59 -55 vvcurveto
          -93 -85 -66 -188 -112 -152 35 24 -71 vhcurveto
          48 61 43 82 27 167 rrcurveto
          3 278 vlineto
          15 154 rlineto
          -267 hlineto
          26 153 rlineto
          285 hlineto
          14 154 rlineto
          -274 hlineto
          2 8 rlineto
          219 37 78 63 125 hhcurveto
          123 86 -100 -28 10 hvcurveto
          153 230 rlineto
          37 -45 -115 73 -220 hhcurveto
          -344 -157 -242 -232 -37 hvcurveto
          -5 -28 rlineto
          -180 hlineto
          -15 -154 rlineto
          169 hlineto
          -27 -153 rlineto
          -186 hlineto
          -15 -154 rlineto
          175 hlineto
          -17 -98 -15 -92 -32 -64 -29 -29 rlinecurve
          -134 -8 -135 -77 -110 vvcurveto
          endchar
        </CharString>
        <CharString name="logicalnot">
          19 626 227 hstem
          202 986 vstem
          202 626 rmoveto
          703 hlineto
          -36 -304 rlineto
          257 hlineto
          62 531 rlineto
          -960 hlineto
          endchar
        </CharString>
        <CharString name="lozenge">
          24 19 -21 hstem
          85 1234 vstem
          699 -2 rmoveto
          5 hlineto
          615 770 rlineto
          13 vlineto
          -615 768 rlineto
          -4 hlineto
          -615 -768 rlineto
          -13 vlineto
          615 -353 rmoveto
          -272 356 rlineto
          5 vlineto
          272 340 rlineto
          3 hlineto
          273 -340 rlineto
          -3 vlineto
          -273 -358 rlineto
          endchar
        </CharString>
        <CharString name="lslash">
          -686 21 -21 1146 -20 hstem
          11 750 vstem
          83 hmoveto
          -31 callsubr
          116 858 205 81 rlineto
          207 vlineto
          -175 -72 76 560 rlineto
          -359 hlineto
          -96 -715 -196 -80 rlineto
          -197 vlineto
          167 66 rlineto
          endchar
        </CharString>
        <CharString name="m">
          614 -43 callsubr
          36 -20 hstemhm
          76 1776 hintmask 00000000
          hintmask 10110000
          -70 callgsubr
          hintmask 11010000
          15 204 rlineto
          -344 hlineto
          endchar
        </CharString>
        <CharString name="macron">
          -731 1395 219 hstem
          16 615 vstem
          16 1395 -29 callsubr
          endchar
        </CharString>
        <CharString name="macron.cap">
          -731 1707 209 hstem
          36 597 vstem
          36 1707 14 callgsubr
        </CharString>
        <CharString name="minus">
          8 callgsubr
        </CharString>
        <CharString name="minute">
          -728 1190 592 hstem
          225 429 vstem
          225 1190 18 callgsubr
          endchar
        </CharString>
        <CharString name="mu">
          -71 callgsubr
        </CharString>
        <CharString name="multiply">
          46 247 1065 hstem
          166 1124 vstem
          339 248 rmoveto
          371 360 299 -361 209 185 -321 337 393 336 -173 207 -379 -361 -291 361 -209 -185 313 -337 -385 -336 rlineto
          endchar
        </CharString>
        <CharString name="n">
          -32 -43 callsubr
          36 -20 hstemhm
          76 1130 hintmask 00000000
          hintmask 10110000
          76 hmoveto
          -46 callgsubr
        </CharString>
        <CharString name="nacute">
          -32 21 31 callgsubr
          90 548 hstemhm
          76 1130 -487 543 hintmask 00101000
          843 1226 -94 callsubr
          hintmask 00000000
          -643 -1325 -47 callgsubr
        </CharString>
        <CharString name="nbspace">
          -866 endchar
        </CharString>
        <CharString name="ncaron">
          -32 21 31 callgsubr
          122 442 hstemhm
          76 1130 -671 763 hintmask 00101000
          747 -66 callsubr
          hintmask 00000000
          -459 -1632 -47 callgsubr
        </CharString>
        <CharString name="ncommaaccent">
          -32 11 callgsubr
          1156 -20 hstemhm
          76 1130 -724 9 callsubr
          425 -141 -100 callgsubr
          hintmask 00000000
          -505 37 rmoveto
          -98 callgsubr
          hintmask 01110000
          -7 callgsubr
          endchar
        </CharString>
        <CharString name="nine">
          -58 103 246 569 238 hstem
          101 335 422 328 vstem
          202 -274 rmoveto
          79 -211 rlineto
          533 130 372 488 494 vvcurveto
          297 -143 232 -347 -434 -161 -331 -292 -225 144 -205 248 78 103 19 38 70 vhcurveto
          -24 -74 -210 -258 -308 -102 rrcurveto
          412 623 rmoveto
          -95 -83 63 154 136 56 216 175 102 89 -106 -199 -57 -15 -74 -20 -62 hvcurveto
          -31 -27 -87 -40 -95 hhcurveto
          endchar
        </CharString>
        <CharString name="notequal">
          -267 21 -21 315 248 245 248 hstemhm
          106 932 -902 846 hintmask 10001000
          136 hmoveto
          222 hlineto
          624 1350 rlineto
          -223 hlineto
          hintmask 01110000
          -598 -542 -19 callgsubr
          -92 -741 -19 callgsubr
          endchar
        </CharString>
        <CharString name="ntilde">
          -32 -43 callsubr
          36 -20 164 244 hstemhm
          76 1130 -767 864 hintmask 00000000
          hintmask 10101000
          76 hmoveto
          -98 callgsubr
          hintmask 11001000
          -7 callgsubr
          hintmask 00010100
          313 225 -95 callgsubr
        </CharString>
        <CharString name="numbersign">
          54 21 -21 321 228 301 221 hstem
          108 1204 vstem
          227 hmoveto
          242 hlineto
          59 321 rlineto
          232 hlineto
          -48 -321 rlineto
          240 hlineto
          54 321 rlineto
          199 hlineto
          20 228 rlineto
          -187 hlineto
          51 301 rlineto
          204 hlineto
          19 221 rlineto
          -192 hlineto
          48 286 rlineto
          -245 hlineto
          -50 -286 rlineto
          -231 hlineto
          45 286 rlineto
          -245 hlineto
          -47 -286 rlineto
          -192 hlineto
          -19 -221 rlineto
          180 hlineto
          -50 -301 rlineto
          -186 hlineto
          -20 -228 rlineto
          174 hlineto
          278 228 rmoveto
          51 301 rlineto
          231 hlineto
          -50 -301 rlineto
          endchar
        </CharString>
        <CharString name="o">
          -36 callsubr
          hstem
          65 354 339 358 vstem
          -84 callsubr
          endchar
        </CharString>
        <CharString name="oacute">
          -36 callsubr
          70 548 45 callsubr
          175 543 -379 358 hintmask 00101000
          718 1226 -94 callsubr
          hintmask 11010100
          -529 -856 -103 callgsubr
          endchar
        </CharString>
        <CharString name="obreve">
          -36 callsubr
          144 217 45 callsubr
          5 196 138 -86 callgsubr
          219 1102 -105 callsubr
          endchar
        </CharString>
        <CharString name="ocircumflex">
          -36 callsubr
          72 442 45 callsubr
          -67 763 -357 358 hintmask 00101000
          490 1229 -91 callsubr
          hintmask 11010100
          -287 -827 -103 callgsubr
          endchar
        </CharString>
        <CharString name="odieresis">
          -36 callsubr
          182 363 45 callsubr
          -75 339 75 358 -298 339 hintmask 00000000
          hintmask 00101010
          966 -89 callsubr
          hintmask 11010100
          -429 -869 -103 callgsubr
          endchar
        </CharString>
        <CharString name="oe">
          424 -16 214 -214 242 716 214 -196 196 45 callsubr
          956 344 hintmask 00000000
          hintmask 10101100
          65 460 rmoveto
          -261 118 -215 298 155 120 46 76 96 vhcurveto
          -75 70 103 -47 144 hhcurveto
          260 184 149 85 59 hvcurveto
          -92 171 rlineto
          hintmask 01101100
          -65 -49 -147 -98 -127 hhcurveto
          -118 -27 61 96 hvcurveto
          333 84 274 127 299 vvcurveto
          161 -104 102 -236 -143 -130 -47 -83 -106 vhcurveto
          80 -64 -95 50 -140 hhcurveto
          hintmask 10101100
          -422 -214 -333 -363 hvcurveto
          464 -262 rmoveto
          -69 -41 59 163 225 67 297 162 70 40 -52 -173 -41 -2 -42 -4 -43 hvcurveto
          295 361 -14 26 -15 25 -18 23 rlinecurve
          -152 -119 -101 -192 -10 -232 rrcurveto
          -159 -30 -66 -126 -112 hhcurveto
          578 363 rmoveto
          hintmask 10011100
          140 3 63 259 127 hhcurveto
          53 22 -31 -70 hvcurveto
          hintmask 10101100
          -161 -150 -130 -118 -7 vhcurveto
          endchar
        </CharString>
        <CharString name="ogonek">
          -700 -480 193 hstemhm
          -9 284 hintmask 00000000
          hintmask 11000000
          -9 -306 rmoveto
          -105 65 -69 130 146 119 71 83 82 vhcurveto
          -36 114 rlineto
          -44 -57 -42 -31 -56 hhcurveto
          -39 -28 15 57 74 117 93 137 86 hvcurveto
          -122 21 -63 -14 rlineto
          -86 -33 -267 -133 -185 vvcurveto
          endchar
        </CharString>
        <CharString name="ograve">
          -36 callsubr
          70 548 45 callsubr
          -136 543 -68 -86 callgsubr
          173 1028 -73 callgsubr
        </CharString>
        <CharString name="ohungarumlaut">
          -36 callsubr
          67 530 45 callsubr
          -87 973 -547 358 hintmask 00101000
          950 1223 -44 callsubr
          hintmask 11010100
          -267 -837 -103 callgsubr
          endchar
        </CharString>
        <CharString name="omacron">
          -36 callsubr
          239 219 45 callsubr
          15 615 -291 358 hintmask 00101000
          434 1395 -29 callsubr
          hintmask 11010100
          -387 -1145 -103 callgsubr
          endchar
        </CharString>
        <CharString name="one">
          -315 21 -21 1152 -20 30 -20 hstemhm
          182 656 hintmask 00000000
          hintmask 10110000
          311 hmoveto
          -31 callsubr
          hintmask 11010000
          170 1152 rlineto
          hintmask 10110000
          -240 10 -106 -73 -170 -98 -140 -31 rlinecurve
          40 -198 87 15 45 -1 77 25 rlinecurve
          endchar
        </CharString>
        <CharString name="one.numr">
          -331 546 1099 hstem
          282 585 vstem
          414 -30 callgsubr
          endchar
        </CharString>
        <CharString name="onehalf">
          1209 -169 233 -43 -21 696 236 598 -20 hstemhm
          312 2011 -1595 940 297 344 hintmask 00000000
          hintmask 10001000
          444 -30 callgsubr
          hintmask 10100010
          829 -1354 rmoveto
          73 -175 rlineto
          43 callgsubr
          -28 callsubr
          hintmask 01010100
          -657 -6 rmoveto
          -6 callgsubr
        </CharString>
        <CharString name="onequarter">
          36 callgsubr
          1255 -20 hstemhm
          312 2078 -1662 940 hintmask 00000000
          hintmask 01001000
          444 -30 callgsubr
          750 -1176 rmoveto
          61 -128 rlineto
          25 callgsubr
          hintmask 00101000
          -10 callsubr
          hintmask 01001000
          -2 callsubr
          rlineto
          hintmask 10010100
          -1128 -1110 rmoveto
          -6 callgsubr
        </CharString>
        <CharString name="onesuperior">
          46 callsubr
        </CharString>
        <CharString name="ordfeminine">
          -388 726 190 516 145 -32 -20 hstemhm
          92 299 hintmask 00000000
          hintmask 10110000
          355 726 rmoveto
          120 107 68 86 83 hvcurveto
          7 -154 rlineto
          218 hlineto
          161 847 -161 -28 rlineto
          hintmask 11010000
          16 -49 -82 16 -67 hhcurveto
          -348 -1 -252 -268 -310 vvcurveto
          hintmask 10110000
          -166 95 -106 168 vhcurveto
          119 190 rmoveto
          -67 -16 38 76 hvcurveto
          hintmask 11010000
          135 82 267 213 17 16 -2 -4 16 vhcurveto
          -88 -395 rlineto
          hintmask 10110000
          -67 -56 -64 -48 -53 hhcurveto
          endchar
        </CharString>
        <CharString name="ordmasculine">
          -405 716 168 544 161 hstem
          100 290 320 293 vstem
          466 716 rmoveto
          287 250 177 341 227 -152 128 -224 -271 -256 -188 -330 -225 166 -130 200 hvcurveto
          29 168 rmoveto
          -74 -31 74 118 118 46 234 164 86 24 -59 -123 -134 -31 -228 -184 hvcurveto
          endchar
        </CharString>
        <CharString name="oslash">
          -171 -14 214 744 214 hstem
          65 354 339 358 vstem
          -63 callgsubr
          endchar
        </CharString>
        <CharString name="oslashacute">
          -171 -14 214 744 214 68 548 45 callsubr
          76 543 -280 358 hintmask 11010100
          -63 callgsubr
          hintmask 00101000
          155 997 -34 callgsubr
        </CharString>
        <CharString name="otilde">
          -36 callsubr
          144 244 45 callsubr
          -105 864 -420 -86 callgsubr
          -109 1167 -95 callgsubr
        </CharString>
        <CharString name="p">
          22 callsubr
          hstemhm
          842 373 hintmask 00000000
          hintmask 10100110
          428 -10 rmoveto
          hintmask 11000110
          4 callgsubr
          hintmask 11001010
          12 callsubr
          hintmask 11010010
          17 callgsubr
          hintmask 11001010
          -28 -26 1 4 -24 hvcurveto
          endchar
        </CharString>
        <CharString name="paragraph">
          13 21 -21 1322 230 hstem
          80 1378 vstem
          340 hmoveto
          276 hlineto
          173 1322 rlineto
          194 hlineto
          -171 -1322 rlineto
          279 hlineto
          175 1327 167 33 25 192 rlineto
          -348 hlineto
          -120 -110 19 -164 hhcurveto
          -472 -169 -228 -270 5 hvcurveto
          4 -218 144 -172 214 -5 rrcurveto
          endchar
        </CharString>
        <CharString name="parenleft">
          -497 1693 -21 hstem
          130 319 vstem
          130 540 rmoveto
          -515 244 -284 113 -92 vhcurveto
          17 hlineto
          176 106 rlineto
          -97 137 -134 236 389 vvcurveto
          122 9 111 18 101 vhcurveto
          66 366 176 245 206 210 -179 119 rcurveline
          -162 -88 -335 -296 -93 -557 rrcurveto
          -16 -95 -9 -104 -111 vvcurveto
          endchar
        </CharString>
        <CharString name="parenright">
          -497 -265 21 hstem
          456 319 vstem
          775 888 rmoveto
          515 -244 284 -113 92 vhcurveto
          -17 hlineto
          -176 -106 rlineto
          97 -137 134 -236 -389 vvcurveto
          -122 -9 -111 -18 -101 vhcurveto
          -66 -366 -176 -245 -206 -210 179 -119 rcurveline
          162 88 335 296 93 557 rrcurveto
          16 95 9 104 111 vvcurveto
          endchar
        </CharString>
        <CharString name="partialdiff">
          3 -16 246 644 224 369 265 hstem
          121 353 460 344 vstem
          121 537 rmoveto
          -306 4 238 -247 282 hhcurveto
          428 205 269 544 475 -226 460 -518 -147 -150 -52 -93 -113 hvcurveto
          112 -200 rlineto
          48 65 103 32 85 hhcurveto
          235 150 -167 -254 46 hvcurveto
          29 -55 -65 23 -103 hhcurveto
          -285 -296 -130 -431 5 hvcurveto
          353 11 rmoveto
          227 -4 77 99 166 hhcurveto
          90 66 -28 -50 65 hvcurveto
          -134 -2 28 -432 -251 hhcurveto
          -178 -53 139 179 -4 hvcurveto
          endchar
        </CharString>
        <CharString name="percent">
          652 -3 callgsubr
          -4 callsubr
          hintmask 1110111110000000
          427 673 -42 callsubr
          hintmask 1101111110000000
          703 -459 -62 callsubr
          endchar
        </CharString>
        <CharString name="period">
          -825 -8 -21 hstem
          30 369 vstem
          30 123 -86 callsubr
        </CharString>
        <CharString name="periodcentered">
          -665 638 -21 hstem
          149 369 vstem
          149 769 -86 callsubr
        </CharString>
        <CharString name="perthousand">
          1559 -3 callgsubr
          100 235 328 245 hintmask 0101000001100000
          2081 421 -62 callsubr
          -4 callsubr
          -1889 235 -42 callsubr
          hintmask 1110111110000000
          703 -459 -62 callsubr
          endchar
        </CharString>
        <CharString name="peseta">
          253 703 224 147 240 hstem
          148 1487 vstem
          523 hmoveto
          64 476 rlineto
          -3 36 55 -1 97 hhcurveto
          356 231 159 296 73 hvcurveto
          180 hlineto
          20 147 rlineto
          -177 hlineto
          340 27 -191 126 -340 -151 -132 -16 -109 hhcurveto
          -161 hlineto
          -62 -450 rlineto
          -171 hlineto
          -20 -147 rlineto
          171 hlineto
          -126 -927 rlineto
          507 1299 rmoveto
          56 9 76 5 56 1 179 3 76 -91 -5 -152 rrcurveto
          -469 hlineto
          -20 -147 rmoveto
          465 hlineto
          -157 -47 -110 -67 -152 hhcurveto
          -80 -1 -56 3 -49 7 rrcurveto
          endchar
        </CharString>
        <CharString name="pi">
          252 5 -21 866 290 hstem
          0 1583 vstem
          122 135 rmoveto
          204 -151 91 4 68 32 42 32 rlinecurve
          90 79 45 61 12 216 29 442 rcurveline
          241 hlineto
          -64 -560 rlineto
          -198 -20 82 -108 170 hhcurveto
          222 158 129 114 58 hvcurveto
          -110 131 rlineto
          -46 -42 -65 -75 -71 hhcurveto
          -38 -23 33 86 4 hvcurveto
          23 495 rlineto
          24 hlineto
          227 97 102 262 7 hvcurveto
          -196 hlineto
          -54 -18 -35 -21 -82 hhcurveto
          -881 hlineto
          -199 -158 -109 -198 -14 hvcurveto
          147 -63 rlineto
          39 41 41 41 107 hhcurveto
          66 hlineto
          -50 -355 -14 -123 -25 -109 -105 -85 rlinecurve
          -32 -24 -36 -15 -18 -4 rrcurveto
          endchar
        </CharString>
        <CharString name="plus">
          1 654 263 hstem
          182 1034 -39 callsubr
          endchar
        </CharString>
        <CharString name="plusminus">
          5 0 207 447 263 hstem
          163 1053 -39 callsubr
          -367 -526 rmoveto
          906 hlineto
          16 207 rlineto
          -905 hlineto
          endchar
        </CharString>
        <CharString name="product">
          365 1245 276 hstem
          393 377 368 376 vstem
          393 -172 rmoveto
          377 1417 368 -1417 376 1417 hlineto
          231 1 rlineto
          276 -1577 -276 vlineto
          225 -1 rlineto
          endchar
        </CharString>
        <CharString name="q">
          -73 -471 -21 476 244 -223 -21 962 210 -27 callsubr
          hintmask 00000000
          hintmask 10111000
          406 -16 rmoveto
          179 110 164 128 52 hvcurveto
          -45 -276 -65 -492 rlineto
          350 hlineto
          220 1648 -180 -46 rlineto
          22 -59 -108 24 -87 hhcurveto
          -468 -235 -375 -369 -65 callsubr
          hvcurveto
          hintmask 11011000
          125 244 -74 callgsubr
          25 24 -1 -3 22 hvcurveto
          -47 -349 rlineto
          -144 -44 -99 -221 -98 hhcurveto
          endchar
        </CharString>
        <CharString name="question">
          -291 -8 -21 1547 260 hstem
          225 266 270 321 vstem
          348 464 rmoveto
          17 -1 167 66 rlineto
          -7 25 -34 48 48 241 591 -29 485 vvcurveto
          245 -172 186 -389 -79 -102 -23 -30 -34 vhcurveto
          -56 -230 rlineto
          18 71 64 5 72 hhcurveto
          188 116 -96 -112 -50 -16 -57 -7 -20 hvcurveto
          -28 -45 -78 -64 -155 -69 rrcurveto
          -207 -103 -45 -76 -119 vvcurveto
          -92 64 -110 59 -41 vhcurveto
          -21 -341 -86 callsubr
        </CharString>
        <CharString name="questiondown">
          -283 -344 260 hstem
          46 321 270 266 vstem
          593 1096 rmoveto
          129 79 103 112 28 callgsubr
          hvcurveto
          -547 -1009 rmoveto
          -245 172 -186 389 79 102 23 30 34 vhcurveto
          56 230 rlineto
          -18 -71 -64 -5 -72 hhcurveto
          -188 -116 96 112 50 16 57 7 20 hvcurveto
          28 45 78 64 155 69 rrcurveto
          207 103 45 76 119 vvcurveto
          92 -64 110 -59 41 vhcurveto
          -17 1 -167 -66 rlineto
          7 -25 34 -48 -48 -241 -591 29 -485 vvcurveto
          endchar
        </CharString>
        <CharString name="quotedbl">
          -218 966 721 hstemhm
          216 412 157 412 hintmask 11000000
          216 966 19 callgsubr
          hintmask 10100000
          484 -721 19 callgsubr
          endchar
        </CharString>
        <CharString name="quotedblbase">
          -104 -553 884 hstemhm
          166 317 221 317 hintmask 11000000
          -26 callgsubr
          hintmask 10100000
          538 -22 callgsubr
        </CharString>
        <CharString name="quotedblleft">
          -103 887 884 hstemhm
          206 317 222 317 hintmask 10100000
          927 887 rmoveto
          -50 callgsubr
          hintmask 11000000
          -539 hmoveto
          -50 callgsubr
          endchar
        </CharString>
        <CharString name="quotedblright">
          -104 886 884 hstemhm
          352 317 228 317 hintmask 10100000
          1032 -25 callgsubr
          hintmask 11000000
          -545 -22 callgsubr
        </CharString>
        <CharString name="quoteleft">
          -642 887 884 hstem
          206 317 vstem
          388 887 rmoveto
          -50 callgsubr
          endchar
        </CharString>
        <CharString name="quotereversed">
          -663 886 885 hstem
          206 275 vstem
          450 886 rmoveto
          132 117 4 22 rlineto
          -45 40 -60 101 114 vvcurveto
          112 60 103 87 31 vhcurveto
          6 41 -137 204 rlineto
          -134 -17 -157 -163 -222 vvcurveto
          -210 110 -166 134 -107 vhcurveto
          endchar
        </CharString>
        <CharString name="quoteright">
          -642 886 884 hstem
          322 317 vstem
          457 -25 callgsubr
          endchar
        </CharString>
        <CharString name="quotesinglbase">
          -642 -553 884 hstem
          166 317 vstem
          -26 callgsubr
          endchar
        </CharString>
        <CharString name="quotesingle">
          -787 966 721 hstem
          216 412 vstem
          216 966 19 callgsubr
          endchar
        </CharString>
        <CharString name="r">
          -446 -43 callsubr
          22 -20 34 -20 hstemhm
          78 846 hintmask 00000000
          hintmask 10011000
          78 hmoveto
          -11 callgsubr
          hintmask 10101000
          63 361 rlineto
          hintmask 10011000
          -34 callsubr
          hintmask 11001000
          16 228 rlineto
          -344 hlineto
          endchar
        </CharString>
        <CharString name="racute">
          44 callgsubr
          90 548 hstemhm
          78 846 -432 543 hintmask 00010100
          616 1226 -94 callsubr
          hintmask 00000000
          -414 -1325 -35 callgsubr
        </CharString>
        <CharString name="radical">
          296 -354 2224 hstem
          99 1606 vstem
          225 294 rmoveto
          167 84 311 -732 rlineto
          317 hlineto
          685 2224 rlineto
          -367 hlineto
          -480 -1794 -214 640 rlineto
          -262 hlineto
          -283 -141 rlineto
          endchar
        </CharString>
        <CharString name="rcaron">
          44 callgsubr
          122 442 hstemhm
          78 846 -616 763 hintmask 00010100
          520 -66 callsubr
          hintmask 00000000
          -230 -1632 -35 callgsubr
        </CharString>
        <CharString name="rcommaaccent">
          -446 11 callgsubr
          1142 -20 34 -20 hstemhm
          78 846 -760 258 hintmask 00000000
          hintmask 10000100
          107 -141 -100 callgsubr
          hintmask 00000000
          -185 37 rmoveto
          -11 callgsubr
          hintmask 01011000
          63 361 rlineto
          hintmask 01101000
          -34 callsubr
          hintmask 01011000
          16 228 rlineto
          -344 hlineto
          endchar
        </CharString>
        <CharString name="registered">
          740 83 130 621 157 299 165 255 128 hstem
          171 142 387 225 277 226 349 143 vstem
          171 962 rmoveto
          -487 388 -392 486 486 389 392 487 486 -389 390 -486 -486 -388 -390 -486 vhcurveto
          142 hmoveto
          413 317 335 415 415 317 -335 -413 -414 -317 -335 -415 -415 -317 335 414 vhcurveto
          387 -476 rmoveto
          225 348 hlineto
          23 55 0 1 13 hvcurveto
          94 -41 38 -140 40 -81 19 -36 9 -28 21 -22 rrcurveto
          255 hlineto
          -36 45 -12 24 -18 30 -57 96 -33 120 -102 58 rrcurveto
          146 42 48 130 147 vvcurveto
          159 -121 117 -246 vhcurveto
          -131 -49 -6 -84 hhcurveto
          -97 hlineto
          225 -451 rmoveto
          281 vlineto
          12 36 28 -1 37 hhcurveto
          129 2 47 -51 -91 vvcurveto
          -105 -56 -54 -101 -37 -54 1 6 -29 vhcurveto
          endchar
        </CharString>
        <CharString name="ring">
          -622 1253 143 268 140 hstem
          52 19 callsubr
          vstem
          365 1253 -58 callgsubr
          endchar
        </CharString>
        <CharString name="ring.cap">
          -622 1471 139 268 136 hstem
          35 19 callsubr
          vstem
          358 1471 -60 callsubr
        </CharString>
        <CharString name="s">
          -374 -16 249 -228 34 callgsubr
          1 callgsubr
          30 337 44 callsubr
          56 53 -8 callsubr
          hintmask 01100100
          -38 callsubr
          hintmask 01101000
          -89 callgsubr
          hintmask 10100100
          -55 callgsubr
          endchar
        </CharString>
        <CharString name="sacute">
          -374 5 34 callgsubr
          70 548 1 callgsubr
          8 543 -521 337 hintmask 00100100
          626 1226 -94 callsubr
          hintmask 00000000
          -446 -1272 -80 callsubr
        </CharString>
        <CharString name="scaron">
          -374 5 34 callgsubr
          102 442 1 callgsubr
          -176 763 -557 337 hintmask 00100100
          530 -66 callsubr
          hintmask 00000000
          -262 -1579 -80 callsubr
        </CharString>
        <CharString name="scircumflex">
          -374 5 34 callgsubr
          72 442 1 callgsubr
          -234 763 -499 337 hintmask 00100100
          398 1229 -91 callsubr
          hintmask 00000000
          -204 -1243 -80 callsubr
        </CharString>
        <CharString name="second">
          -260 1190 592 hstemhm
          225 429 39 429 hintmask 11000000
          225 1190 18 callgsubr
          hintmask 10100000
          344 -592 18 callgsubr
          endchar
        </CharString>
        <CharString name="section">
          -157 -187 252 1369 239 hstemhm
          99 289 -141 322 134 316 -142 281 hintmask 00000000
          hintmask 11100100
          67 -72 rmoveto
          -35 45 184 -80 191 hhcurveto
          hintmask 11101000
          371 161 190 189 hvcurveto
          -1 66 -13 54 -23 44 rrcurveto
          hintmask 11010100
          110 76 66 123 112 vvcurveto
          -2 207 -155 155 -205 103 -150 76 -79 24 2 84 rrcurveto
          68 1 63 50 151 hhcurveto
          68 188 -16 -71 52 hvcurveto
          67 221 rlineto
          35 -41 -144 70 -196 hhcurveto
          -351 -180 -170 -209 -70 14 -55 25 -46 hvcurveto
          hintmask 11101000
          -114 -70 -74 -101 1 -122 1 -207 160 -149 202 -102 150 -74 93 -34 -2 -82 rrcurveto
          -68 -1 -35 -49 -167 hhcurveto
          -81 -223 33 81 -72 hvcurveto
          514 425 rmoveto
          -204 113 -47 57 1 99 1 49 15 38 18 29 63 -39 72 -32 71 -36 rrcurveto
          hintmask 11100100
          204 -113 47 -57 -2 -99 -1 -52 -15 -35 -19 -28 rrcurveto
          hintmask 11101000
          -63 39 -72 31 -69 36 rrcurveto
          endchar
        </CharString>
        <CharString name="semicolon">
          -825 -519 814 506 -21 hstemhm
          105 369 -349 278 hintmask 10010000
          -18 callsubr
          hintmask 01100000
          59 825 -86 callsubr
        </CharString>
        <CharString name="seven">
          -215 867 273 -66 66 hstemhm
          76 1065 hintmask 00000000
          hintmask 10100000
          218 -242 rmoveto
          298 -107 rlineto
          hintmask 01100000
          625 1423 rlineto
          hintmask 10100000
          -49 66 rlineto
          -952 hlineto
          -64 -273 rlineto
          653 hlineto
          endchar
        </CharString>
        <CharString name="six">
          -58 -16 238 569 246 hstem
          111 328 422 335 vstem
          111 513 rmoveto
          -297 143 -232 347 434 161 331 292 225 -115 205 -247 -78 -133 -22 -45 -70 vhcurveto
          24 76 210 264 308 104 -79 211 rcurveline
          -533 -130 -372 -488 -494 vvcurveto
          519 -291 rmoveto
          -102 -89 106 199 54 15 70 20 59 hvcurveto
          35 27 87 46 95 hhcurveto
          95 83 -63 -154 -136 -56 -216 -175 hvcurveto
          endchar
        </CharString>
        <CharString name="slash">
          -7 callsubr
        </CharString>
        <CharString name="space">
          -866 endchar
        </CharString>
        <CharString name="sterling">
          75 -20 255 484 232 362 232 hstemhm
          -62 1479 -306 306 hintmask 00000000
          hintmask 11110000
          98 -20 rmoveto
          69 93 41 64 53 hvcurveto
          -17 166 187 -88 269 hhcurveto
          hintmask 11101000
          425 57 243 154 101 -67 142 -102 47 hvcurveto
          -209 -169 rlineto
          20 -11 52 -52 -55 vvcurveto
          -86 -89 -59 -171 -102 -158 32 20 -60 vhcurveto
          35 37 47 86 23 136 28 173 rcurveline
          314 hlineto
          30 232 rlineto
          -306 hlineto
          21 124 rlineto
          178 29 70 60 118 hhcurveto
          127 86 -111 -32 10 hvcurveto
          172 256 rlineto
          30 -38 -112 89 -263 hhcurveto
          -344 -152 -228 -217 -38 hvcurveto
          -26 -149 rlineto
          -179 hlineto
          -30 -232 rlineto
          169 hlineto
          -41 -238 -16 -94 -35 -47 -18 -23 rlinecurve
          -123 -1 -151 -77 -122 vvcurveto
          hintmask 11110000
          -66 47 -71 113 vhcurveto
          endchar
        </CharString>
        <CharString name="summation">
          152 -170 267 1146 279 -80 80 hstemhm
          163 1186 hintmask 00000000
          hintmask 11010000
          163 -99 rmoveto
          26 -71 rlineto
          1160 267 -660 hlineto
          389 592 -391 554 rlineto
          604 279 -1098 hlineto
          hintmask 10110000
          -30 -80 547 -759 rlineto
          endchar
        </CharString>
        <CharString name="t">
          33 callsubr
          hstem
          125 700 vstem
          125 195 -87 callgsubr
          endchar
        </CharString>
        <CharString name="tbar">
          -512 1 -21 641 130 173 216 hstem
          116 709 vstem
          125 195 rmoveto
          -137 91 -78 144 198 151 91 65 81 vhcurveto
          -54 170 rlineto
          -41 -44 -87 -41 -44 hhcurveto
          -61 -9 33 31 32 6 36 8 61 hvcurveto
          28 204 rlineto
          165 hlineto
          16 130 rlineto
          -163 hlineto
          24 173 rlineto
          227 hlineto
          23 216 rlineto
          -222 hlineto
          37 276 rlineto
          -267 hlineto
          -98 -276 rlineto
          -105 hlineto
          -36 -216 rlineto
          84 hlineto
          -24 -173 rlineto
          -62 hlineto
          -16 -130 rlineto
          60 hlineto
          -30 -223 rlineto
          20 callgsubr
          endchar
        </CharString>
        <CharString name="tcaron">
          33 callsubr
          107 645 hstemhm
          125 700 -8 263 hintmask 11010000
          125 195 -87 callgsubr
          hintmask 00101000
          657 1080 -74 callsubr
        </CharString>
        <CharString name="thorn">
          -61 -471 -21 476 210 -179 -21 918 244 0 -20 hstemhm
          301 106 439 374 hintmask 00000000
          hintmask 11001110
          76 hmoveto
          -68 -492 rlineto
          354 hlineto
          40 350 rlineto
          hintmask 10101110
          10 136 rlineto
          hintmask 11001110
          -6 35 36 -4 34 -52 callgsubr
          hintmask 11010110
          -16 callsubr
          hintmask 11001110
          -29 -27 1 4 -25 hvcurveto
          endchar
        </CharString>
        <CharString name="three">
          -183 -326 249 972 261 0 -20 hstemhm
          47 976 -384 379 -356 361 hintmask 00000000
          hintmask 10110000
          80 -67 rmoveto
          -33 -247 rlineto
          -8 65 55 -4 48 hhcurveto
          hintmask 10101000
          470 333 175 308 145 -130 146 -226 7 hvcurveto
          hintmask 10100100
          226 68 135 161 181 vvcurveto
          196 -188 95 -213 -213 -192 -89 -65 -65 vhcurveto
          hintmask 11000100
          98 -207 rlineto
          65 79 106 35 71 hhcurveto
          114 42 -39 -80 -122 -180 -82 -183 -22 hvcurveto
          -28 -257 187 38 rlineto
          hintmask 10101000
          137 -5 44 -86 -70 vvcurveto
          -156 -128 -91 -297 vhcurveto
          hintmask 10110000
          -37 -48 4 6 -49 hvcurveto
          endchar
        </CharString>
        <CharString name="three.numr">
          -280 484 212 717 231 hstem
          687 313 vstem
          111 565 -56 callgsubr
          endchar
        </CharString>
        <CharString name="threequarters">
          36 callgsubr
          266 212 717 231 -171 -20 hstemhm
          644 313 -229 940 hintmask 00000000
          hintmask 01011010
          68 622 -56 callgsubr
          1194 -629 rmoveto
          61 -128 rlineto
          25 callgsubr
          hintmask 00111010
          -10 callsubr
          hintmask 01011010
          -2 callsubr
          rlineto
          hintmask 10000101
          -1128 -1110 rmoveto
          -6 callgsubr
        </CharString>
        <CharString name="threesuperior">
          46 callsubr
        </CharString>
        <CharString name="tilde">
          -527 1300 244 hstem
          -24 864 vstem
          82 1365 -95 callgsubr
        </CharString>
        <CharString name="tilde.cap">
          -530 1592 5 callsubr
          -7 904 44 callsubr
          99 1647 -9 callsubr
          hintmask 10010000
          -75 callsubr
          hintmask 01110000
          -3 callsubr
        </CharString>
        <CharString name="trademark">
          769 1360 170 -90 90 hstemhm
          179 1847 hintmask 00000000
          hintmask 10100000
          893 714 rmoveto
          201 hlineto
          82 541 rlineto
          hintmask 01100000
          30 185 34 -185 121 -549 rlineto
          177 hlineto
          277 644 38 90 -17 -185 -41 -541 rlineto
          194 hlineto
          hintmask 10100000
          37 816 rlineto
          -318 hlineto
          -240 -579 -25 183 -87 396 rlineto
          -313 hlineto
          -717 -817 rmoveto
          191 1 94 646 rlineto
          240 hlineto
          22 170 rlineto
          -666 hlineto
          -28 -170 rlineto
          241 hlineto
          endchar
        </CharString>
        <CharString name="two">
          -62 0 242 632 282 0 -20 hstemhm
          51 1134 -479 389 hintmask 00000000
          hintmask 10110000
          97 hmoveto
          1043 hlineto
          45 253 -603 -22 rlineto
          hintmask 10101000
          259 142 254 162 285 vvcurveto
          175 -137 161 -295 -212 -193 -131 -85 -81 vhcurveto
          119 -189 rlineto
          hintmask 11001000
          63 76 135 60 83 hhcurveto
          72 44 -40 -68 -164 -303 -272 -352 -188 hvcurveto
          endchar
        </CharString>
        <CharString name="two.numr">
          -188 546 233 632 236 hstemhm
          151 938 -358 344 hintmask 00000000
          hintmask 10100000
          224 546 rmoveto
          43 callgsubr
          hintmask 11010000
          -28 callsubr
          endchar
        </CharString>
        <CharString name="twosuperior">
          46 callsubr
        </CharString>
        <CharString name="u">
          -40 callsubr
          -4 callgsubr
          44 callsubr
          15 callgsubr
          hintmask 10110000
          -78 callgsubr
          hintmask 01110000
          -101 callgsubr
          endchar
        </CharString>
        <CharString name="uacute">
          -40 callsubr
          106 548 -4 callgsubr
          -588 543 hintmask 00010100
          759 1226 -94 callsubr
          hintmask 00000000
          -514 -1090 rmoveto
          hintmask 01101000
          -78 callgsubr
          hintmask 10101000
          -101 callgsubr
          endchar
        </CharString>
        <CharString name="ubreve">
          -40 callsubr
          180 217 -4 callgsubr
          -758 196 hintmask 00000000
          hintmask 01101000
          15 callgsubr
          hintmask 10101000
          -78 callgsubr
          hintmask 01101000
          -101 callgsubr
          hintmask 00010100
          668 1065 -105 callsubr
          endchar
        </CharString>
        <CharString name="ucircumflex">
          -40 callsubr
          108 442 -4 callgsubr
          -830 763 hintmask 00010100
          531 1229 -91 callsubr
          hintmask 00000000
          -272 -1061 rmoveto
          hintmask 01101000
          -78 callgsubr
          hintmask 10101000
          -101 callgsubr
          endchar
        </CharString>
        <CharString name="udieresis">
          -40 callsubr
          218 363 -4 callgsubr
          -838 -9 callgsubr
          hintmask 00010110
          1007 -89 callsubr
          hintmask 00000000
          -414 -1103 rmoveto
          hintmask 01101000
          -78 callgsubr
          hintmask 10101000
          -101 callgsubr
          endchar
        </CharString>
        <CharString name="ugrave">
          -40 callsubr
          106 548 -4 callgsubr
          -899 543 hintmask 00000000
          hintmask 01101000
          15 callgsubr
          hintmask 10101000
          -78 callgsubr
          hintmask 01101000
          -101 callgsubr
          hintmask 00010100
          622 991 -73 callgsubr
        </CharString>
        <CharString name="uhungarumlaut">
          -40 callsubr
          103 530 -4 callgsubr
          -850 973 hintmask 00000000
          hintmask 01101000
          15 callgsubr
          hintmask 10101000
          -78 callgsubr
          hintmask 01101000
          -101 callgsubr
          hintmask 00010100
          870 988 -44 callsubr
          endchar
        </CharString>
        <CharString name="umacron">
          -40 callsubr
          275 219 -4 callgsubr
          -748 615 hintmask 00000000
          hintmask 01101000
          15 callgsubr
          hintmask 10101000
          -78 callgsubr
          hintmask 01101000
          -101 callgsubr
          hintmask 00010100
          354 1160 -29 callsubr
          endchar
        </CharString>
        <CharString name="underscore">
          -16 -388 201 hstem
          -111 1398 vstem
          -91 -187 rmoveto
          -20 -201 rlineto
          1378 hlineto
          20 201 rlineto
          endchar
        </CharString>
        <CharString name="uni015E">
          -281 -471 222 233 20 1263 279 0 -20 hstemhm
          180 338 -115 244 -23 362 hintmask 00000000
          hintmask 11010100
          7 80 -15 callgsubr
          2 -29 0 -38 -2 -41 rrcurveto
          -46 callsubr
          69 -24 116 -24 57 hvcurveto
          hintmask 11101010
          237 52 150 153 249 vvcurveto
          193 -159 134 -118 94 vhcurveto
          -110 87 -83 69 2 95 rrcurveto
          71 1 56 66 129 hhcurveto
          101 112 -41 -46 46 hvcurveto
          112 281 rlineto
          37 -52 -134 48 -175 hhcurveto
          -322 -212 -178 -279 -186 134 -143 122 -92 hvcurveto
          144 -109 46 -51 -2 -88 rrcurveto
          -41 callsubr
          endchar
        </CharString>
        <CharString name="uni015F">
          -374 -471 222 258 -21 25 -21 917 247 hstemhm
          163 331 -183 244 -31 337 hintmask 00000000
          hintmask 11010100
          56 53 rmoveto
          31 -25 111 -29 112 -11 3 -30 0 -39 -2 -43 rrcurveto
          -46 callsubr
          hvcurveto
          hintmask 10110100
          64 -21 106 -22 60 vhcurveto
          hintmask 10110010
          189 26 160 96 217 vvcurveto
          134 -67 76 -134 103 vhcurveto
          hintmask 10111000
          -89 callgsubr
          hintmask 10110010
          -55 callgsubr
          endchar
        </CharString>
        <CharString name="uni0162">
          -186 -471 222 270 38 callgsubr
          hstem
          192 440 vstem
          127 -233 rmoveto
          -36 -203 rlineto
          -16 23 164 -19 53 hhcurveto
          221 80 101 132 67 -23 113 -24 58 hvcurveto
          101 -45 callgsubr
          -181 -1266 rlineto
          60 hlineto
          4 -31 1 -44 -3 -49 29 callsubr
        </CharString>
        <CharString name="uni0163">
          -512 -471 222 257 -21 32 -21 926 216 hstemhm
          373 126 hintmask 00000000
          hintmask 10111000
          125 195 rmoveto
          -99 47 -69 81 -29 vhcurveto
          4 -31 1 -43 -3 -48 rrcurveto
          -46 callsubr
          hvcurveto
          hintmask 11011000
          63 -20 101 -22 61 vhcurveto
          150 23 116 72 67 54 -54 170 rcurveline
          -41 -44 -87 -41 -44 hhcurveto
          -61 -9 33 31 32 6 36 8 61 hvcurveto
          70 507 rlineto
          227 hlineto
          23 216 rlineto
          -222 hlineto
          37 276 rlineto
          -267 hlineto
          -98 -276 rlineto
          -105 hlineto
          -36 -216 rlineto
          84 hlineto
          -72 -526 rlineto
          hintmask 10111000
          20 callgsubr
          endchar
        </CharString>
        <CharString name="uni01C4">
          -81 callsubr
          hintmask 0101000010000000
          737 1510 -93 callsubr
          endchar
        </CharString>
        <CharString name="uni01C5">
          -80 callgsubr
          hintmask 0101000010000000
          586 1213 -92 callgsubr
          endchar
        </CharString>
        <CharString name="uni01C6">
          -83 callgsubr
          hintmask 0100100001000000
          601 1213 -92 callgsubr
          endchar
        </CharString>
        <CharString name="uni01C7">
          414 0 30 callsubr
          hstemhm
          72 890 -74 847 hintmask 11100000
          72 hmoveto
          -56 callsubr
          hintmask 01010000
          880 -1444 -77 callgsubr
          endchar
        </CharString>
        <CharString name="uni01C8">
          382 -528 206 -151 -21 494 282 858 -20 410 -20 hstemhm
          72 890 -167 869 hintmask 00101100
          72 hmoveto
          -56 callsubr
          hintmask 00000000
          867 -1465 rmoveto
          hintmask 01010010
          -59 callsubr
          hintmask 10010010
          -88 -181 rlineto
          hintmask 01010010
          -82 callsubr
          hintmask 10010010
          218 -49 callsubr
          endchar
        </CharString>
        <CharString name="uni01C9">
          -21 -24 callsubr
          hstemhm
          83 579 -270 869 hintmask 00101000
          31 callsubr
          hintmask 00000000
          452 -1569 rmoveto
          hintmask 01010100
          -59 callsubr
          hintmask 10010100
          -88 -181 rlineto
          hintmask 01010100
          -82 callsubr
          hintmask 10010100
          218 -49 callsubr
          endchar
        </CharString>
        <CharString name="uni01CA">
          846 -68 callgsubr
          hstemhm
          72 1413 -165 847 hintmask 11100000
          -54 callsubr
          hintmask 01010000
          1312 -1444 -77 callgsubr
          endchar
        </CharString>
        <CharString name="uni01CB">
          814 -24 callsubr
          410 -20 hstemhm
          72 1413 -258 869 hintmask 00101100
          -54 callsubr
          hintmask 00000000
          1299 -1465 rmoveto
          hintmask 01010010
          -59 callsubr
          hintmask 10010010
          -88 -181 rlineto
          hintmask 01010010
          -82 callsubr
          hintmask 10010010
          218 -49 callsubr
          endchar
        </CharString>
        <CharString name="uni01CC">
          633 -24 callsubr
          36 -20 hstemhm
          76 1130 -160 869 hintmask 00000000
          hintmask 00101100
          76 hmoveto
          -98 callgsubr
          hintmask 00110100
          -7 callgsubr
          hintmask 00000000
          1177 -1075 rmoveto
          hintmask 01010010
          -59 callsubr
          hintmask 10010010
          -88 -181 rlineto
          hintmask 01010010
          -82 callsubr
          hintmask 10010010
          218 -49 callsubr
          endchar
        </CharString>
        <CharString name="uni01CD">
          -45 callsubr
          188 -21 6 callgsubr
          -837 763 hintmask 00000000
          hintmask 10110100
          -64 callgsubr
          hintmask 01110100
          -94 callgsubr
          hintmask 00000000
          -274 1072 -90 callsubr
          hintmask 00001010
          -33 callgsubr
        </CharString>
        <CharString name="uni01CE">
          -57 callsubr
          102 442 -27 callsubr
          40 763 -104 callsubr
          163 1034 -92 callgsubr
          endchar
        </CharString>
        <CharString name="uni01CF">
          -645 -68 callgsubr
          89 415 38 callsubr
          -499 763 hintmask 11010000
          -69 callsubr
          hintmask 00101000
          67 69 -93 callsubr
          endchar
        </CharString>
        <CharString name="uni01D0">
          -43 callsubr
          138 442 46 callgsubr
          -464 763 hintmask 11010000
          80 hmoveto
          -31 callsubr
          -84 callgsubr
          hintmask 00101000
          107 118 -92 callgsubr
          endchar
        </CharString>
        <CharString name="uni01D1">
          -28 callgsubr
          53 415 39 callgsubr
          109 763 -302 -73 callsubr
          hintmask 00101000
          105 1349 -93 callsubr
          endchar
        </CharString>
        <CharString name="uni01D2">
          -36 callsubr
          102 442 45 callsubr
          -9 763 -415 -86 callgsubr
          93 1060 -92 callgsubr
          endchar
        </CharString>
        <CharString name="uni01D3">
          24 callgsubr
          89 415 41 callsubr
          42 763 hintmask 00000000
          hintmask 11010000
          -88 callgsubr
          hintmask 00101000
          616 1167 -93 callsubr
          endchar
        </CharString>
        <CharString name="uni01D4">
          -40 callsubr
          138 442 -4 callgsubr
          -772 763 hintmask 00000000
          hintmask 01101000
          15 callgsubr
          hintmask 10101000
          -78 callgsubr
          hintmask 01101000
          -101 callgsubr
          hintmask 00010100
          542 1023 -92 callgsubr
          endchar
        </CharString>
        <CharString name="uni01F1">
          -81 callsubr
          endchar
        </CharString>
        <CharString name="uni01F2">
          -80 callgsubr
          endchar
        </CharString>
        <CharString name="uni01F3">
          -83 callgsubr
          endchar
        </CharString>
        <CharString name="uni01F4">
          76 -16 -37 callsubr
          147 -21 hstemhm
          74 359 385 489 hintmask 11101000
          74 607 -107 callsubr
          hintmask 00010100
          887 943 -97 callgsubr
          endchar
        </CharString>
        <CharString name="uni0218">
          -281 -539 -21 565 -21 1283 279 0 -20 10 callsubr
          -108 258 -44 362 hintmask 00000000
          hintmask 10000010
          353 -141 -100 callgsubr
          hintmask 00000000
          -502 117 -15 callgsubr
          hintmask 01011000
          -99 callsubr
          hintmask 01100101
          -41 callsubr
          endchar
        </CharString>
        <CharString name="uni0219">
          -374 -539 -21 565 34 callgsubr
          1 callgsubr
          -176 258 -52 337 hintmask 00000000
          hintmask 10000100
          261 -141 -100 callgsubr
          hintmask 00000000
          -361 90 -8 callsubr
          hintmask 01110000
          -38 callsubr
          hintmask 01100010
          -89 callgsubr
          hintmask 01101000
          -55 callgsubr
          endchar
        </CharString>
        <CharString name="uni021A">
          -186 -539 -21 581 38 callgsubr
          hstemhm
          148 1111 -864 9 callsubr
          338 -141 -100 callgsubr
          hintmask 01110000
          -168 37 rmoveto
          360 -45 callgsubr
          rlineto
          endchar
        </CharString>
        <CharString name="uni021B">
          -512 -539 -21 561 -21 944 216 hstemhm
          125 700 -563 9 callsubr
          205 -141 -100 callgsubr
          hintmask 01110000
          -236 232 -87 callgsubr
          endchar
        </CharString>
        <CharString name="uni02c9">
          -731 1707 209 hstem
          56 577 vstem
          56 1707 rmoveto
          577 209 -577 hlineto
          endchar
        </CharString>
        <CharString name="uni0394">
          -21 callgsubr
        </CharString>
        <CharString name="uni03A9">
          -63 callsubr
        </CharString>
        <CharString name="uni03BC">
          -71 callgsubr
        </CharString>
        <CharString name="uni1E02">
          28 25 callsubr
          102 16 callgsubr
          661 392 -145 376 -343 365 hintmask 0000011000000000
          835 1612 -100 callsubr
          -4 callsubr
          -751 -1612 rmoveto
          155 hlineto
          74 151 -16 80 hhcurveto
          hintmask 0110100100000000
          24 callsubr
          hintmask 1010100100000000
          23 callsubr
          hintmask 0111000010000000
          27 callsubr
          hintmask 0110100100000000
          13 callsubr
          hintmask 0111000010000000
          -29 -31 1 2 -30 hvcurveto
          hintmask 0110100100000000
          -6 callsubr
        </CharString>
        <CharString name="uni1E03">
          32 callsubr
          177 368 hstemhm
          761 387 -302 374 hintmask 00000000
          hintmask 01010010
          76 hmoveto
          hintmask 10010010
          185 34 rlineto
          -2 vlineto
          -22 59 109 -26 88 -52 callgsubr
          hintmask 10100010
          -16 callsubr
          hintmask 10010010
          -29 -27 1 4 -25 hvcurveto
          hintmask 00001100
          470 1114 -106 callsubr
          endchar
        </CharString>
        <CharString name="uni1E0A">
          84 13 callgsubr
          102 16 callgsubr
          699 392 -28 364 hintmask 00001100
          873 1612 -100 callsubr
          hintmask 00000000
          -789 -1612 rmoveto
          -33 callsubr
          hintmask 01010010
          -77 callsubr
          hintmask 10100010
          -59 callgsubr
          hintmask 10010010
          -82 callgsubr
          hintmask 10100010
          -61 -54 8 13 -40 hvcurveto
          endchar
        </CharString>
        <CharString name="uni1E0B">
          -77 0 callgsubr
          -6 -20 183 368 -27 callsubr
          -96 387 hintmask 00000000
          hintmask 01010010
          -35 callsubr
          hintmask 00101010
          -47 callsubr
          hintmask 00000101
          -16 1085 -106 callsubr
          endchar
        </CharString>
        <CharString name="uni1E1E">
          35 callgsubr
          82 16 callgsubr
          72 1076 -605 392 hintmask 00010100
          717 1612 -100 callsubr
          hintmask 11101000
          -645 -1612 rmoveto
          5 callgsubr
        </CharString>
        <CharString name="uni1E1F">
          -586 -8 callgsubr
          314 216 -44 368 -329 -21 hstemhm
          110 845 -629 387 hintmask 00010010
          495 1626 -106 callsubr
          hintmask 00000000
          -385 -1626 rmoveto
          -97 callsubr
          hintmask 11001100
          -60 callgsubr
          hintmask 11100100
          2 callgsubr
          hintmask 11001100
          22 -54 -69 -98 callsubr
          endchar
        </CharString>
        <CharString name="uni1E20">
          76 -16 -37 callsubr
          161 209 hstemhm
          74 359 211 597 hintmask 11101000
          74 607 -107 callsubr
          hintmask 00010100
          570 1100 14 callgsubr
        </CharString>
        <CharString name="uni1E21">
          -40 callgsubr
          239 219 -27 callsubr
          67 615 hintmask 00000000
          hintmask 10110100
          175 -217 -103 callsubr
          hintmask 11010100
          -88 callsubr
          hintmask 00001010
          -22 1167 -29 callsubr
          endchar
        </CharString>
        <CharString name="uni1E40">
          40 callgsubr
          82 16 callgsubr
          -31 1928 -947 392 hintmask 00010100
          1124 1612 -100 callsubr
          hintmask 00000000
          -1155 -1612 rmoveto
          29 callgsubr
          hintmask 01101000
          21 callsubr
          hintmask 10101000
          -5 callgsubr
        </CharString>
        <CharString name="uni1E41">
          614 -43 callsubr
          36 -20 177 368 hstemhm
          76 1776 -826 387 hintmask 00000000
          hintmask 10101000
          -70 callgsubr
          hintmask 11001000
          15 204 rlineto
          -344 hlineto
          hintmask 00010100
          963 -49 callsubr
          endchar
        </CharString>
        <CharString name="uni1E44">
          149 -68 callgsubr
          102 16 callgsubr
          72 1413 -791 392 hintmask 11010000
          -54 callsubr
          hintmask 00101000
          577 82 -50 callsubr
        </CharString>
        <CharString name="uni1E45">
          -32 -43 callsubr
          36 -20 177 368 hstemhm
          76 1130 -512 387 hintmask 00000000
          hintmask 10101000
          76 hmoveto
          -98 callgsubr
          hintmask 11001000
          -7 callgsubr
          hintmask 00010100
          631 -49 callsubr
          endchar
        </CharString>
        <CharString name="uni1E56">
          -41 35 callsubr
          102 16 callgsubr
          648 392 -64 349 hintmask 00001100
          822 1612 -100 callsubr
          hintmask 00000000
          -738 -1612 rmoveto
          16 callsubr
          hintmask 11010010
          42 callsubr
          hintmask 11100010
          28 callsubr
          hintmask 11010010
          9 callgsubr
          hintmask 11100010
          -48 -57 5 7 -24 hvcurveto
          endchar
        </CharString>
        <CharString name="uni1E57">
          22 callsubr
          177 368 hstemhm
          708 387 -253 373 -4 callsubr
          hintmask 1010010010000000
          428 -10 rmoveto
          hintmask 1100010010000000
          4 callgsubr
          hintmask 1100100010000000
          12 callsubr
          hintmask 1101000010000000
          17 callgsubr
          hintmask 1100100010000000
          -28 -26 1 4 -24 hvcurveto
          hintmask 0000001100000000
          419 1114 -106 callsubr
          endchar
        </CharString>
        <CharString name="uni1E60">
          -281 5 -21 1283 279 0 -20 86 363 10 callsubr
          -9 392 -277 362 hintmask 00010010
          683 1612 -100 callsubr
          hintmask 00000000
          -676 -1532 -15 callgsubr
          hintmask 10101000
          -99 callsubr
          hintmask 11000101
          -41 callsubr
          endchar
        </CharString>
        <CharString name="uni1E61">
          -374 -16 249 -228 34 callgsubr
          157 368 1 callgsubr
          -17 387 -340 337 hintmask 00000000
          hintmask 01101000
          56 53 -8 callsubr
          hintmask 01100001
          -38 callsubr
          hintmask 01100100
          -89 callgsubr
          hintmask 10100001
          -55 callgsubr
          hintmask 00010010
          534 980 -106 callsubr
          endchar
        </CharString>
        <CharString name="uni1E6A">
          -186 21 38 callgsubr
          83 16 callgsubr
          148 1111 -706 392 hintmask 00101000
          727 1612 -100 callsubr
          hintmask 11010000
          -401 -1612 rmoveto
          360 -45 callgsubr
          rlineto
          endchar
        </CharString>
        <CharString name="uni1E6B">
          33 callsubr
          312 368 hstemhm
          125 700 -448 387 hintmask 11010000
          125 195 -87 callgsubr
          hintmask 00101000
          421 1257 -106 callsubr
          endchar
        </CharString>
        <CharString name="uni1E8E">
          -187 -68 callgsubr
          102 16 callgsubr
          83 1273 -835 392 hintmask 11010000
          317 -79 callgsubr
          hintmask 00101000
          293 1022 -50 callsubr
        </CharString>
        <CharString name="uni1E8F">
          -31 callgsubr
          193 368 hstemhm
          446 387 -59 326 hintmask 00000000
          hintmask 11100100
          -102 callgsubr
          hintmask 00011000
          618 1511 -106 callsubr
          endchar
        </CharString>
        <CharString name="uni1E9E">
          161 -23 1561 hstem
          65 1381 vstem
          375 hmoveto
          121 868 rlineto
          304 37 160 150 220 hhcurveto
          75 69 -18 -28 43 hvcurveto
          -338 -397 -21 -142 rlineto
          275 115 -84 -157 -221 -151 -80 -112 -103 -94 43 35 -41 hvcurveto
          -117 -215 rlineto
          -40 70 93 -41 215 hhcurveto
          319 236 233 321 237 -197 128 -140 hvcurveto
          304 334 31 213 rlineto
          -100 -139 95 -268 hhcurveto
          -437 -269 -297 -488 -61 hvcurveto
          -105 -753 rlineto
          endchar
        </CharString>
        <CharString name="uni20A6">
          547 367 31 722 26 hstem
          662 13 596 14 vstem
          540 hmoveto
          55 398 rlineto
          423 hlineto
          190 -398 rlineto
          304 hlineto
          55 398 rlineto
          225 hlineto
          21 147 rlineto
          -225 hlineto
          60 428 rlineto
          247 hlineto
          20 147 rlineto
          -247 hlineto
          57 402 rlineto
          -312 hlineto
          -57 -402 rlineto
          -428 hlineto
          -196 402 rlineto
          -291 hlineto
          -57 -402 rlineto
          -241 hlineto
          -20 -147 rlineto
          241 hlineto
          -60 -428 rlineto
          -254 hlineto
          -21 -147 rlineto
          254 hlineto
          -55 -398 rlineto
          435 1146 rmoveto
          13 -26 rlineto
          -14 hlineto
          505 -488 rmoveto
          -167 341 rlineto
          336 hlineto
          -33 -233 -10 -195 rlineto
          -87 hlineto
          -559 220 rmoveto
          9 208 rlineto
          88 hlineto
          49 -105 154 -323 rlineto
          -331 hlineto
          670 -147 rmoveto
          -1 -31 -14 31 rlineto
          endchar
        </CharString>
        <CharString name="uni20AA">
          638 204 163 799 151 hstem
          19 1958 vstem
          545 326 rmoveto
          -235 -27 208 -91 228 hhcurveto
          807 hlineto
          216 1522 rlineto
          -290 hlineto
          -189 -1318 rlineto
          -342 hlineto
          -240 -87 36 146 16 hvcurveto
          123 780 rlineto
          -292 hlineto
          -375 -1166 rmoveto
          220 1317 rlineto
          424 hlineto
          191 47 -78 -180 -21 hvcurveto
          -123 -692 rlineto
          291 hlineto
          125 735 rlineto
          206 24 -55 214 -305 hhcurveto
          -864 hlineto
          -236 -1522 rlineto
          endchar
        </CharString>
        <CharString name="uni20B1">
          176 670 124 107 193 107 121 hstem
          138 1387 vstem
          490 hmoveto
          60 433 rlineto
          -3 21 73 -1 76 hhcurveto
          280 202 155 210 101 hvcurveto
          176 hlineto
          15 107 rlineto
          -149 hlineto
          19 63 10 63 1 67 rrcurveto
          135 hlineto
          15 107 rlineto
          -156 hlineto
          232 -35 -178 113 -300 -129 -114 -16 -83 hhcurveto
          -147 hlineto
          -46 -329 rlineto
          -153 hlineto
          -15 -107 rlineto
          153 hlineto
          -27 -193 rlineto
          -142 hlineto
          -15 -107 rlineto
          142 hlineto
          -110 -794 rlineto
          502 1309 rmoveto
          8 37 57 5 33 hhcurveto
          143 74 -42 -79 29 hvcurveto
          -389 hlineto
          -15 -107 rmoveto
          418 -4 hlineto
          -3 -68 -12 -64 -21 -57 rrcurveto
          -409 hlineto
          -15 -107 rmoveto
          368 hlineto
          -76 -56 -80 -48 -105 hhcurveto
          -48 -68 4 8 -26 hvcurveto
          endchar
        </CharString>
        <CharString name="uni20B2">
          166 8 -21 238 345 601 -20 hstem
          124 1243 vstem
          124 611 rmoveto
          -287 131 -308 387 -29 vhcurveto
          -32 -245 rlineto
          200 hlineto
          32 251 119 13 99 28 77 23 rlinecurve
          56 16 30 6 29 3 102 741 rcurveline
          -544 hlineto
          -30 -253 rlineto
          245 hlineto
          -46 -303 rlineto
          -32 -62 -108 -10 -56 hhcurveto
          -213 -92 163 244 288 115 365 347 185 153 -77 -37 48 hvcurveto
          71 291 -82 28 -51 16 -82 24 -125 11 rlinecurve
          34 233 rlineto
          -200 hlineto
          -35 -234 -399 -48 -306 -361 3 -520 rlinecurve
          endchar
        </CharString>
        <CharString name="uni20B5">
          100 12 -21 hstem
          171 1104 vstem
          580 -344 rmoveto
          124 hlineto
          46 329 199 5 162 66 69 77 rlinecurve
          -66 184 rlineto
          -62 -86 -98 -58 -147 hhcurveto
          -4 hlineto
          156 1117 rlineto
          4 3 1 4 hhcurveto
          126 105 -40 -28 26 hvcurveto
          72 245 -75 22 -75 29 -157 3 rlinecurve
          37 267 rlineto
          -123 hlineto
          -39 -275 rlineto
          -390 -56 -282 -348 -492 vvcurveto
          -290 116 -310 340 -51 vhcurveto
          32 232 rmoveto
          -120 59 -49 155 5 215 5 315 117 245 191 77 rrcurveto
          endchar
        </CharString>
        <CharString name="uni20B9">
          112 764 212 168 209 hstem
          176 1256 vstem
          176 583 rmoveto
          -3 38 161 -5 72 hhcurveto
          42 hlineto
          -117 125 59 -458 100 hhcurveto
          391 hlineto
          -149 145 -63 326 -115 127 173 69 115 133 45 176 rrcurveto
          173 hlineto
          27 168 rlineto
          -178 8 hlineto
          85 -31 67 -41 49 vhcurveto
          286 hlineto
          26 171 rlineto
          -1137 hlineto
          -25 -171 rlineto
          462 hlineto
          68 -23 43 -53 -96 -13 -1 -12 -12 vvcurveto
          -581 hlineto
          -27 -168 rlineto
          577 hlineto
          -147 -53 -119 -65 -169 hhcurveto
          -128 -88 3 5 -43 hvcurveto
          -35 -189 rlineto
          endchar
        </CharString>
        <CharString name="uni20BA">
          101 0 1526 hstem
          24 1360 vstem
          595 hmoveto
          471 258 256 408 53 hvcurveto
          7 55 rlineto
          -328 hlineto
          -280 -35 -88 -177 -311 hhcurveto
          -1 -9 -2 10 61 452 411 177 17 182 -403 -173 24 178 431 186 17 185 -423 -183 35 259 rlineto
          -336 hlineto
          -52 -411 -324 -140 -18 -185 318 137 -23 -176 -313 -134 -17 -183 307 131 -72 -565 rlineto
          endchar
        </CharString>
        <CharString name="uni2113">
          36 -27 268 -247 -21 1388 288 hstemhm
          926 324 44 callsubr
          -40 192 rmoveto
          274 -159 51 30 51 31 50 32 rlinecurve
          -111 95 124 -42 90 hhcurveto
          388 130 272 138 72 hvcurveto
          -261 101 rlineto
          hintmask 10110000
          -125 -64 -84 -118 -132 hhcurveto
          -56 -38 23 33 -26 hvcurveto
          366 290 263 352 -3 356 rrcurveto
          230 -2 -118 124 -206 hhcurveto
          -448 -228 -631 -448 -69 6 -62 11 -55 hvcurveto
          hintmask 01110000
          -110 -79 -107 -66 -88 -47 rrcurveto
          610 442 rmoveto
          347 23 151 380 123 hhcurveto
          50 8 -54 -49 1 hvcurveto
          5 -208 -159 -223 -202 -193 rrcurveto
          endchar
        </CharString>
        <CharString name="uni2215">
          -7 callsubr
        </CharString>
        <CharString name="uni2219">
          -665 638 -21 hstem
          149 369 vstem
          149 769 -86 callsubr
        </CharString>
        <CharString name="uogonek">
          -59 -489 -21 511 -17 callsubr
          -4 callgsubr
          -683 281 hintmask 00000000
          hintmask 10111000
          15 callgsubr
          hintmask 11011000
          -78 callgsubr
          hintmask 10111000
          -6 -194 rlineto
          66 hlineto
          hintmask 10110100
          -76 callsubr
          156 1140 rlineto
          -357 hlineto
          -101 -723 rlineto
          -96 -55 -81 -87 -72 hhcurveto
          -36 -33 32 66 48 14 112 13 97 hvcurveto
          70 551 rlineto
          -353 hlineto
          -75 -546 rlineto
          hintmask 10111000
          -18 -124 -19 -141 1 -94 rrcurveto
          endchar
        </CharString>
        <CharString name="uring">
          -40 callsubr
          133 143 268 140 -4 callgsubr
          -754 19 callsubr
          hintmask 00011011
          782 1253 -58 callgsubr
          hintmask 00000000
          -683 -1161 rmoveto
          hintmask 01100100
          -78 callgsubr
          hintmask 10100100
          -101 callgsubr
          endchar
        </CharString>
        <CharString name="utilde">
          -40 callsubr
          180 244 -4 callgsubr
          -868 864 hintmask 00000000
          hintmask 01101000
          15 callgsubr
          hintmask 10101000
          -78 callgsubr
          hintmask 01101000
          -101 callgsubr
          hintmask 00010100
          340 1130 -95 callgsubr
        </CharString>
        <CharString name="v">
          -213 0 -21 1161 -20 hstem
          93 1014 vstem
          250 -21 rmoveto
          278 12 20 17 rlineto
          304 251 255 367 356 vvcurveto
          108 -8 32 -3 18 vhcurveto
          -329 hlineto
          -102 -16 -155 -11 -66 vhcurveto
          -26 -184 -69 -171 -76 -121 -49 -65 rcurveline
          -14 199 -62 665 rlineto
          -351 hlineto
          102 -785 rlineto
          endchar
        </CharString>
        <CharString name="w">
          10 callgsubr
          hstem
          92 1639 vstem
          250 -21 -99 callgsubr
          endchar
        </CharString>
        <CharString name="wacute">
          10 callgsubr
          106 548 hstemhm
          92 1639 -918 543 hintmask 00101000
          937 1226 -94 callsubr
          hintmask 11010000
          -563 -1346 -99 callgsubr
          endchar
        </CharString>
        <CharString name="wcircumflex">
          10 callgsubr
          108 442 hstemhm
          92 1639 -1160 763 hintmask 00101000
          709 1229 -91 callsubr
          hintmask 11010000
          -321 -1317 -99 callgsubr
          endchar
        </CharString>
        <CharString name="wdieresis">
          10 callgsubr
          218 16 callgsubr
          92 1639 -1168 -9 callgsubr
          hintmask 00101100
          1185 -89 callsubr
          hintmask 11010000
          -463 -1359 -99 callgsubr
          endchar
        </CharString>
        <CharString name="wgrave">
          10 callgsubr
          106 548 hstemhm
          92 1639 -1229 543 hintmask 11010000
          250 -21 -99 callgsubr
          hintmask 00101000
          726 871 -73 callgsubr
        </CharString>
        <CharString name="won">
          866 782 185 hstem
          67 2121 vstem
          801 -2 rmoveto
          228 613 rlineto
          78 hlineto
          65 -613 rlineto
          367 hlineto
          241 613 rlineto
          347 hlineto
          17 171 rlineto
          -297 hlineto
          72 185 rlineto
          250 hlineto
          19 171 rlineto
          -201 hlineto
          154 392 rlineto
          -308 hlineto
          -145 -392 rlineto
          -362 hlineto
          -36 392 rlineto
          -291 hlineto
          34 -312 -32 -80 rlineto
          -393 hlineto
          -38 392 rlineto
          -302 hlineto
          50 -392 rlineto
          -191 hlineto
          -18 -171 rlineto
          231 hlineto
          23 -185 rlineto
          -277 hlineto
          -19 -171 rlineto
          318 hlineto
          79 -613 rlineto
          877 969 rmoveto
          284 hlineto
          -69 -185 rlineto
          -198 hlineto
          -734 185 rmoveto
          309 hlineto
          -74 -185 rlineto
          -217 hlineto
          740 -257 rmoveto
          -8 86 rlineto
          119 hlineto
          -32 -86 -58 -221 rlineto
          -736 221 rmoveto
          -8 86 rlineto
          131 hlineto
          -34 -86 -66 -221 rlineto
          endchar
        </CharString>
        <CharString name="x">
          -298 -43 callsubr
          hstem
          -105 1238 vstem
          -105 hmoveto
          368 hlineto
          215 332 147 -332 rlineto
          408 hlineto
          -323 559 423 581 rlineto
          -356 hlineto
          -195 -315 -128 315 rlineto
          -408 hlineto
          300 -539 rlineto
          endchar
        </CharString>
        <CharString name="y">
          -31 callgsubr
          hstemhm
          774 326 hintmask 00000000
          hintmask 11110000
          -102 callgsubr
          endchar
        </CharString>
        <CharString name="yacute">
          -31 callgsubr
          106 548 hstemhm
          471 543 -240 326 hintmask 00000000
          hintmask 11100100
          -102 callgsubr
          hintmask 00011000
          598 1424 -34 callgsubr
        </CharString>
        <CharString name="ycircumflex">
          -31 callgsubr
          108 442 hstemhm
          229 763 -218 326 hintmask 00000000
          hintmask 11100100
          -102 callgsubr
          hintmask 00011000
          370 1427 -26 callsubr
        </CharString>
        <CharString name="ydieresis">
          -31 callgsubr
          hstemhm
          774 326 hintmask 00000000
          hintmask 11110000
          -102 callgsubr
          hintmask 00000000
          846 1536 -107 callgsubr
          endchar
        </CharString>
        <CharString name="yen">
          118 21 -21 324 182 174 182 668 -20 hstem
          106 1411 vstem
          106 324 rmoveto
          403 hlineto
          -41 -324 rlineto
          367 hlineto
          45 324 rlineto
          421 hlineto
          16 182 rlineto
          -411 hlineto
          25 174 rlineto
          410 hlineto
          19 182 rlineto
          -304 hlineto
          461 668 rlineto
          -422 hlineto
          -275 -559 -46 -109 -28 109 -167 559 rlineto
          -355 hlineto
          259 -668 rlineto
          -318 hlineto
          -19 -182 rlineto
          408 hlineto
          -22 -174 rlineto
          -407 hlineto
          endchar
        </CharString>
</ttFont>
